<svg xmlns="http://www.w3.org/2000/svg" width="668" height="179" fill="none" xmlns:v="https://vecta.io/nano"><g clip-path="url(#A)" fill="#dbdbdb"><path d="M35.8 88.903H0c.597 15.514 4.773 29.237 12.53 41.767h29.833c-3.58-12.53-5.967-26.85-6.563-41.767zm47.733 79.954V136.04H50.717c7.757 19.093 19.69 31.623 32.817 32.817zM48.927 130.67h34.607V88.903H41.767c.597 14.917 2.983 29.237 7.16 41.767zm-7.16-47.733h41.767V41.17H48.927c-4.177 11.933-6.563 26.253-7.16 41.767zm95.466 0h35.8c-.596-15.513-4.773-29.237-12.53-41.767H130.67c3.58 11.933 5.967 26.253 6.563 41.767zM50.717 35.203h32.817V2.387c-13.127 1.79-25.06 14.32-32.817 32.817zm-8.353 5.967H12.53C4.773 53.7.597 67.423 0 82.937h35.8c.597-15.513 2.983-29.833 6.563-41.767zM89.5 2.387v32.817h32.22C114.56 16.707 102.627 4.177 89.5 2.387zm-44.75 134.25H16.707c12.53 17.303 32.22 30.43 54.297 34.01-10.74-5.967-20.287-18.497-26.253-34.01zm91.887-41.767h2.983c9.547 0 19.093 2.983 26.85 8.95.597.597 1.79.597 2.983.597 1.194-.597 1.79-1.194 1.79-2.387.597-4.177 1.194-8.95 1.194-13.127h-35.8c.596 1.79.596 4.177 0 5.967zm-41.17 44.75v-2.983H89.5v32.816c4.773-.596 8.95-2.386 13.127-5.37-4.774-7.756-7.16-16.11-7.16-24.463zM70.407.597c-22.077 4.177-41.17 16.707-53.7 34.607H44.75C50.717 19.093 60.263 7.16 70.407.597zm57.876 34.607h28.044c-12.53-17.303-32.22-30.43-54.297-34.01 10.74 5.967 19.69 17.9 26.253 34.01zm2.387 60.263v-7.16H88.903v41.766h7.16c3.58-16.706 17.304-30.43 34.607-34.606zm-6.563-54.297H89.5v41.767h41.767c-.597-15.513-2.984-29.833-7.16-41.767zm16.11 59.667a38.71 38.71 0 0 0-38.783 38.783 38.71 38.71 0 0 0 38.783 38.783A38.71 38.71 0 0 0 179 139.62a38.71 38.71 0 0 0-38.783-38.783zm1.79 58.473c-.597.597-1.193 1.193-2.387 1.193s-1.79-.596-2.386-1.193v-1.79c0-.597.596-1.79.596-1.79a2.88 2.88 0 0 1 4.177 0c.597.597 1.193 1.193 1.193 2.387s-.596.596-1.193 1.193zm1.193-13.723c0 1.79-1.193 2.983-2.983 2.983s-2.983-1.79-2.983-2.983v-29.834c0-1.79 1.193-2.983 2.983-2.983s2.983 1.193 2.983 2.983v29.834z"/></g><path d="M634.604 91.782c0-1.355.284-2.688.852-3.999.568-1.326 1.405-2.505 2.513-3.54 1.121-1.049 2.505-1.894 4.151-2.535 1.646-.656 3.54-.983 5.681-.983.685 0 1.413.051 2.185.153a14.54 14.54 0 0 1 2.338.503 12.46 12.46 0 0 1 2.295.94 9.36 9.36 0 0 1 2.032 1.398v-8.675h-4.807v-3.496h9.505v27.204h3.714v3.278h-8.412v-2.775c-1.136 1.107-2.506 1.959-4.108 2.556-1.603.583-3.343.874-5.222.874-1.792 0-3.46-.233-5.004-.699-1.544-.481-2.892-1.18-4.043-2.098-1.136-.918-2.032-2.054-2.687-3.409s-.983-2.921-.983-4.698zm28.318-19.119h.874v24.779h-.874V72.663zm-9.767 3.911h2.578v.83h-2.578v-.83zm-13.81 15.033c0 1.18.189 2.243.568 3.19a6.93 6.93 0 0 0 1.661 2.425c.728.67 1.602 1.187 2.622 1.551 1.034.364 2.2.546 3.496.546a11.25 11.25 0 0 0 2.076-.197 10.85 10.85 0 0 0 2.054-.634c.67-.291 1.296-.648 1.879-1.071a6.93 6.93 0 0 0 1.529-1.529 7.19 7.19 0 0 0 1.027-2.032c.263-.757.394-1.602.394-2.535a5.85 5.85 0 0 0-.721-2.862 7.33 7.33 0 0 0-1.945-2.294c-.801-.641-1.741-1.143-2.819-1.508s-2.214-.546-3.408-.546c-1.166 0-2.258.182-3.278.546s-1.916.874-2.688 1.529a7.1 7.1 0 0 0-1.791 2.382c-.437.918-.656 1.93-.656 3.037zm1.53 0c0-.83.16-1.602.48-2.316.335-.714.802-1.34 1.399-1.879s1.318-.962 2.163-1.267c.859-.306 1.806-.459 2.841-.459 1.485 0 2.738.219 3.758.656s1.711.983 2.076 1.639a8.4 8.4 0 0 0-2.666-1.114c-.976-.233-2.032-.35-3.168-.35-.918 0-1.748.138-2.491.415a5.7 5.7 0 0 0-1.88 1.093 5.07 5.07 0 0 0-1.201 1.661c-.277.626-.415 1.297-.415 2.01 0 2.753 1.551 4.778 4.654 6.074-.889-.102-1.676-.335-2.36-.699a6.24 6.24 0 0 1-1.748-1.355 6.01 6.01 0 0 1-1.071-1.879c-.248-.699-.371-1.442-.371-2.229zm25.761 11.952v-3.583h.874v4.414h-9.548v-.831h8.674zm-29.214-2.469a11.26 11.26 0 0 0 2.032 1.29c.758.393 1.566.721 2.426.983.859.277 1.748.488 2.666.633a18.04 18.04 0 0 0 2.796.219c1.617 0 3.125-.204 4.523-.612 1.413-.393 2.666-.947 3.759-1.66v1.005c-1.093.655-2.36 1.165-3.802 1.529-1.428.379-2.914.568-4.458.568-2.36 0-4.377-.335-6.052-1.005-1.676-.655-2.972-1.639-3.89-2.95zm-36.949-9.199a11.62 11.62 0 0 1 .852-4.414c.568-1.399 1.42-2.629 2.556-3.693s2.55-1.908 4.239-2.535c1.69-.641 3.649-.961 5.878-.961 2.098 0 3.97.284 5.616.852 1.646.554 3.044 1.362 4.195 2.425s2.025 2.367 2.622 3.911c.612 1.53.918 3.278.918 5.244h-22.091c.131 1.049.466 1.981 1.005 2.797.554.816 1.253 1.508 2.098 2.076a9.99 9.99 0 0 0 2.862 1.267c1.078.291 2.2.437 3.365.437.947 0 1.908-.073 2.884-.218.991-.16 1.923-.371 2.797-.634s1.654-.553 2.338-.874c.685-.335 1.209-.677 1.574-1.027h.83l2.054 2.229c-1.501 1.282-3.329 2.258-5.485 2.928-2.141.656-4.508.983-7.101.983-2.258 0-4.261-.276-6.009-.83-1.734-.553-3.197-1.318-4.392-2.294-1.18-.976-2.076-2.12-2.688-3.431a9.91 9.91 0 0 1-.917-4.239zm28.362 2.36l.065-.699.022-.83c0-1.238-.131-2.418-.393-3.54-.248-1.136-.619-2.185-1.115-3.146a11.87 11.87 0 0 0-1.791-2.666 11.28 11.28 0 0 0-2.426-2.054c.962.379 1.843.903 2.644 1.573.816.656 1.515 1.457 2.098 2.404s1.034 2.039 1.355 3.278c.335 1.238.502 2.622.502 4.152a5.24 5.24 0 0 1-.022.437l-.022.59-.065.677-.066.656h-20.648c.276.466.786.947 1.529 1.442.743.481 1.704.888 2.884 1.224a7.78 7.78 0 0 1-2.054-.262c-.626-.175-1.201-.415-1.726-.721-.51-.306-.961-.67-1.355-1.093a5.42 5.42 0 0 1-.895-1.42h21.479zm-6.534-4.261c-.233-1.005-.597-1.901-1.092-2.688-.481-.787-1.078-1.442-1.792-1.966-.714-.539-1.529-.947-2.447-1.224-.918-.291-1.923-.437-3.016-.437-1.179 0-2.257.16-3.233.481a8.04 8.04 0 0 0-2.535 1.311c-.728.553-1.333 1.216-1.814 1.988a7.98 7.98 0 0 0-.983 2.535h16.912zm-14.924-.939c.539-1.195 1.384-2.134 2.535-2.819 1.165-.685 2.513-1.027 4.042-1.027.627 0 1.231.051 1.814.153a6.92 6.92 0 0 1 1.639.481 5.15 5.15 0 0 1 1.333.765c.378.306.677.656.896 1.049a9.22 9.22 0 0 0-2.666-1.224c-.947-.262-1.967-.393-3.059-.393-1.268 0-2.382.262-3.343.787s-1.69 1.267-2.185 2.229h-1.006zm-4.26 12.017c1.413 1.006 3.051 1.785 4.916 2.338 1.879.554 4.028.831 6.446.831 2.36 0 4.567-.27 6.621-.809 2.068-.539 3.933-1.362 5.593-2.469l.59.634c-1.879 1.267-3.86 2.163-5.943 2.688-2.069.524-4.239.786-6.512.786-2.957 0-5.411-.357-7.363-1.071-1.938-.713-3.387-1.689-4.348-2.928zm-30.657-2.316h4.807V84.659h-4.807v-3.715h9.505v3.649a10.86 10.86 0 0 1 1.617-1.661c.641-.524 1.362-.983 2.163-1.377s1.675-.699 2.622-.918c.947-.233 1.959-.35 3.037-.35l1.202.044c.481.014.94.058 1.377.131v4.283a11.19 11.19 0 0 0-1.508-.24l-1.442-.066a9.7 9.7 0 0 0-3.321.568 8.4 8.4 0 0 0-2.775 1.617c-.816.699-1.486 1.559-2.011 2.578s-.844 2.185-.961 3.496v6.053h7.866v3.278H572.46v-3.278zm11.035-4.086c0-1.369.174-2.593.524-3.671s.845-1.988 1.486-2.731c.655-.743 1.449-1.311 2.381-1.704s1.982-.59 3.147-.59c.248 0 .561.022.94.066a11.81 11.81 0 0 1 1.179.153l1.268.284c.422.102.801.226 1.136.371v-5.157h.874v6.249a10.14 10.14 0 0 0-1.333-.459c-.466-.146-.947-.27-1.442-.371-.481-.102-.947-.175-1.398-.218a9.72 9.72 0 0 0-1.224-.088c-1.063 0-2.01.175-2.841.525-.815.35-1.507.852-2.075 1.508s-1.006 1.457-1.311 2.403c-.292.947-.437 2.018-.437 3.212v2.993h-.874v-2.775zm-9.724-8.478h2.578v.83h-2.578v-.83zm17.633 17.371v-3.583h.874v4.414h-18.507v-.831h17.633zm-53.774-6.424c-.291-.743-.51-1.551-.655-2.425-.131-.874-.197-1.835-.197-2.884v-7.167h-3.715v-3.715h8.413v9.024l.153 3.168c.116.918.277 1.639.481 2.163.262.67.604 1.238 1.027 1.704s.895.845 1.42 1.136a6.45 6.45 0 0 0 1.726.634 9.47 9.47 0 0 0 1.945.197c.714 0 1.449-.131 2.207-.393.772-.262 1.515-.626 2.228-1.093a11.25 11.25 0 0 0 1.989-1.661c.626-.641 1.151-1.333 1.573-2.076v-9.09h-4.807v-3.715h9.505V98.75h3.715v3.278h-8.413v-3.321a8.86 8.86 0 0 1-1.704 1.573c-.656.481-1.391.903-2.207 1.267-.801.35-1.668.627-2.6.831a13.63 13.63 0 0 1-2.907.305c-2.17 0-4.056-.451-5.659-1.354-1.588-.918-2.76-2.317-3.518-4.196zm24.823-15.077h.874v15.383h-.874V82.059zm-19.404 0h.874v8.981c0 1.136.109 2.083.328 2.84s.51 1.377.874 1.857a4.07 4.07 0 0 0 1.245 1.114 6.92 6.92 0 0 0 1.443.612c-1.53-.014-2.71-.517-3.54-1.508-.816-1.005-1.224-2.564-1.224-4.676v-9.221zm9.68 4.13h2.578v.83h-2.578v-.83zm-18.354 0h1.485v.83h-1.485v-.83zm31.836 17.371v-3.583h.874v4.414h-9.549v-.831h8.675zm-28.34-2.993c1.136 1.224 2.418 2.134 3.845 2.731 1.428.612 3.132.918 5.113.918 1.763 0 3.336-.233 4.72-.699 1.399-.452 2.666-1.071 3.802-1.858v1.006c-1.282.83-2.615 1.434-3.999 1.813s-2.884.568-4.501.568c-2.199 0-4.071-.386-5.615-1.158-1.545-.757-2.666-1.864-3.365-3.321zm-37.955-8.675c0-1.544.328-3.015.983-4.414.67-1.398 1.603-2.629 2.797-3.693 1.209-1.063 2.659-1.908 4.348-2.535 1.705-.641 3.584-.961 5.638-.961 1.719 0 3.27.233 4.654.699a14.34 14.34 0 0 1 3.868 1.923v-1.945h4.697v6.774h-4.479c-.408-.51-.91-1.005-1.508-1.486a10.58 10.58 0 0 0-2.032-1.311 12.14 12.14 0 0 0-2.447-.918c-.889-.233-1.828-.35-2.819-.35-1.267 0-2.447.204-3.539.612s-2.04.976-2.841 1.704-1.435 1.588-1.901 2.578c-.452.991-.677 2.069-.677 3.234 0 1.209.24 2.28.721 3.212.495.932 1.172 1.719 2.032 2.36.859.626 1.879 1.107 3.059 1.442 1.18.32 2.462.481 3.846.481 2.243 0 4.224-.357 5.943-1.071 1.733-.714 3.277-1.814 4.632-3.299l2.316 2.644c-1.587 1.704-3.43 2.987-5.528 3.846-2.097.845-4.516 1.267-7.254 1.267-2.302 0-4.356-.254-6.162-.764-1.792-.525-3.307-1.26-4.545-2.207s-2.185-2.083-2.841-3.409c-.641-1.326-.961-2.797-.961-4.414zm23.577-2.622h4.982v-7.385h.874V90.1h-5.856v-.83zm-17.262 2.535c0-.976.189-1.865.568-2.666a6.36 6.36 0 0 1 1.551-2.098c.67-.583 1.457-1.034 2.36-1.355s1.879-.481 2.928-.481a10.6 10.6 0 0 1 1.901.175c.641.117 1.246.284 1.814.502.568.204 1.078.452 1.529.743s.809.612 1.071.961a13.66 13.66 0 0 0-2.819-1.114c-.99-.291-2.127-.437-3.408-.437-1.02 0-1.938.16-2.754.481-.815.306-1.515.721-2.097 1.245a5.44 5.44 0 0 0-1.311 1.835c-.306.699-.459 1.435-.459 2.207s.116 1.457.349 2.054c.248.583.598 1.114 1.049 1.595.452.466 1.005.881 1.661 1.246.655.35 1.398.67 2.229.961-.962-.087-1.828-.291-2.601-.612-.757-.32-1.398-.728-1.922-1.224a5.5 5.5 0 0 1-1.224-1.77c-.277-.685-.415-1.435-.415-2.251zm-3.19 9.221c.699.51 1.478.961 2.338 1.355.859.407 1.777.742 2.753 1.005a23.05 23.05 0 0 0 3.081.633 23.74 23.74 0 0 0 3.234.219c1.311 0 2.593-.109 3.845-.328 1.268-.204 2.455-.503 3.562-.896s2.12-.867 3.037-1.42c.918-.568 1.697-1.202 2.338-1.901l.634.568c-1.588 1.617-3.518 2.819-5.79 3.605-2.258.802-4.815 1.202-7.67 1.202-1.18 0-2.353-.087-3.518-.262s-2.258-.437-3.278-.787c-1.019-.335-1.93-.757-2.731-1.267-.787-.495-1.398-1.071-1.835-1.726zm-37.911-9.134c0-1.544.328-3.015.983-4.414.67-1.398 1.603-2.629 2.797-3.693 1.209-1.063 2.659-1.908 4.348-2.535 1.705-.641 3.584-.961 5.638-.961 1.719 0 3.27.233 4.654.699a14.32 14.32 0 0 1 3.867 1.923v-1.945h4.698v6.774h-4.479c-.408-.51-.91-1.005-1.508-1.486a10.58 10.58 0 0 0-2.032-1.311 12.14 12.14 0 0 0-2.447-.918c-.889-.233-1.828-.35-2.819-.35-1.267 0-2.447.204-3.54.612s-2.039.976-2.84 1.704-1.435 1.588-1.901 2.578c-.452.991-.678 2.069-.678 3.234 0 1.209.241 2.28.722 3.212.495.932 1.172 1.719 2.032 2.36.859.626 1.879 1.107 3.059 1.442 1.18.32 2.462.481 3.845.481 2.244 0 4.225-.357 5.944-1.071 1.733-.714 3.277-1.814 4.632-3.299l2.316 2.644c-1.588 1.704-3.43 2.987-5.528 3.846-2.098.845-4.516 1.267-7.254 1.267-2.302 0-4.356-.254-6.162-.764-1.792-.525-3.307-1.26-4.545-2.207s-2.185-2.083-2.841-3.409c-.641-1.326-.961-2.797-.961-4.414zm23.577-2.622h4.982v-7.385h.874V90.1h-5.856v-.83zm-17.262 2.535c0-.976.189-1.865.568-2.666a6.36 6.36 0 0 1 1.551-2.098c.67-.583 1.457-1.034 2.36-1.355s1.879-.481 2.928-.481a10.61 10.61 0 0 1 1.901.175c.641.117 1.246.284 1.814.502.568.204 1.078.452 1.529.743s.809.612 1.071.961a13.66 13.66 0 0 0-2.819-1.114c-.99-.291-2.127-.437-3.409-.437-1.019 0-1.937.16-2.753.481-.815.306-1.515.721-2.097 1.245a5.43 5.43 0 0 0-1.311 1.835c-.306.699-.459 1.435-.459 2.207s.116 1.457.349 2.054c.248.583.598 1.114 1.049 1.595.452.466 1.005.881 1.661 1.246.655.35 1.398.67 2.229.961-.962-.087-1.829-.291-2.601-.612-.757-.32-1.398-.728-1.923-1.224a5.51 5.51 0 0 1-1.223-1.77c-.277-.685-.415-1.435-.415-2.251zm-3.19 9.221c.699.51 1.478.961 2.338 1.355.859.407 1.777.742 2.753 1.005a23.05 23.05 0 0 0 3.081.633 23.74 23.74 0 0 0 3.234.219c1.311 0 2.592-.109 3.845-.328 1.268-.204 2.455-.503 3.562-.896s2.119-.867 3.037-1.42c.918-.568 1.697-1.202 2.338-1.901l.634.568c-1.588 1.617-3.518 2.819-5.791 3.605-2.258.802-4.814 1.202-7.669 1.202-1.18 0-2.353-.087-3.518-.262s-2.258-.437-3.278-.787c-1.019-.335-1.93-.757-2.731-1.267-.787-.495-1.398-1.071-1.835-1.726zm-38.305-9.199a10.06 10.06 0 0 1 1.027-4.479 11.1 11.1 0 0 1 2.863-3.671c1.238-1.049 2.716-1.872 4.435-2.469 1.719-.612 3.606-.918 5.66-.918 2.155 0 4.078.291 5.768.874 1.704.568 3.139 1.362 4.305 2.382a10.09 10.09 0 0 1 2.687 3.627c.627 1.398.94 2.921.94 4.567 0 1.588-.342 3.052-1.027 4.392-.67 1.34-1.632 2.498-2.884 3.474-1.239.962-2.732 1.718-4.48 2.272-1.733.539-3.671.808-5.812.808-2.025 0-3.868-.298-5.528-.895-1.646-.612-3.059-1.421-4.239-2.426s-2.098-2.156-2.753-3.452c-.641-1.311-.962-2.673-.962-4.086zm3.431 9.199a16.83 16.83 0 0 0 4.676 2.36c1.719.553 3.656.83 5.812.83 2.01 0 3.94-.277 5.79-.83 1.85-.539 3.482-1.341 4.895-2.404a12.13 12.13 0 0 0 3.387-3.911c.845-1.559 1.267-3.336 1.267-5.332 0-.976-.138-1.959-.415-2.95a12.92 12.92 0 0 0-1.136-2.884c-.481-.918-1.071-1.77-1.77-2.556a11.01 11.01 0 0 0-2.338-2.032 10.35 10.35 0 0 1 2.666 1.726c.815.714 1.507 1.53 2.075 2.447.569.903 1.006 1.886 1.311 2.95a11.35 11.35 0 0 1 .481 3.299c0 1.428-.204 2.753-.612 3.977a12.02 12.02 0 0 1-1.704 3.299 12.45 12.45 0 0 1-2.578 2.6c-.991.757-2.083 1.384-3.278 1.879-1.194.51-2.469.896-3.824 1.158-1.34.262-2.709.393-4.108.393-1.165 0-2.279-.094-3.343-.284-1.063-.175-2.054-.437-2.972-.786-.903-.335-1.718-.751-2.447-1.246s-1.34-1.063-1.835-1.704zm1.42-9.287c0 1.122.211 2.149.634 3.081.437.918 1.049 1.712 1.835 2.382.787.655 1.726 1.165 2.819 1.53 1.107.364 2.331.546 3.671.546 1.355 0 2.585-.182 3.693-.546 1.107-.379 2.061-.896 2.862-1.551a7 7 0 0 0 1.857-2.382c.437-.932.656-1.952.656-3.059a7.36 7.36 0 0 0-.656-3.081 7.79 7.79 0 0 0-1.835-2.556c-.787-.743-1.734-1.326-2.841-1.748-1.092-.437-2.301-.656-3.627-.656-1.384 0-2.637.211-3.758.634-1.107.408-2.054.976-2.841 1.704a7.56 7.56 0 0 0-1.835 2.535c-.423.976-.634 2.032-.634 3.168zm1.53.087a6.16 6.16 0 0 1 .546-2.578 6.1 6.1 0 0 1 1.529-2.098c.67-.597 1.464-1.063 2.382-1.398.932-.35 1.959-.524 3.081-.524a8.89 8.89 0 0 1 2.076.24 7.57 7.57 0 0 1 1.857.655 6.27 6.27 0 0 1 1.508 1.071 4.91 4.91 0 0 1 1.049 1.398c-.962-.874-1.967-1.515-3.016-1.923-1.034-.408-2.207-.612-3.518-.612-.947 0-1.821.153-2.622.459a6.85 6.85 0 0 0-2.097 1.245c-.597.524-1.064 1.136-1.399 1.835a5.09 5.09 0 0 0-.502 2.229 6.74 6.74 0 0 0 .24 1.835 4.73 4.73 0 0 0 .808 1.595c.394.481.911.918 1.552 1.311s1.442.743 2.403 1.049c-.874-.058-1.675-.24-2.403-.546a6.38 6.38 0 0 1-1.857-1.246 5.61 5.61 0 0 1-1.202-1.792c-.277-.685-.415-1.42-.415-2.207zm-48.596 6.927h4.807V84.659h-4.807v-3.715h9.505v3.649a10.86 10.86 0 0 1 1.617-1.661 11.16 11.16 0 0 1 2.164-1.377c.801-.393 1.675-.699 2.622-.918.946-.233 1.959-.35 3.037-.35l1.202.044c.48.014.939.058 1.376.131v4.283c-.51-.117-1.012-.197-1.508-.24l-1.442-.066c-1.165 0-2.272.189-3.321.568a8.43 8.43 0 0 0-2.775 1.617c-.816.699-1.486 1.559-2.01 2.578s-.845 2.185-.962 3.496v6.053h7.867v3.278h-17.372v-3.278zm11.035-4.086c0-1.369.175-2.593.524-3.671s.845-1.988 1.486-2.731a6.51 6.51 0 0 1 2.382-1.704c.932-.393 1.981-.59 3.146-.59.248 0 .561.022.94.066a11.83 11.83 0 0 1 1.18.153l1.267.284a6.92 6.92 0 0 1 1.136.371v-5.157h.874v6.249c-.407-.175-.852-.328-1.332-.459-.467-.146-.947-.27-1.443-.371a12.53 12.53 0 0 0-1.398-.218c-.452-.058-.859-.088-1.224-.088-1.063 0-2.01.175-2.84.525-.816.35-1.508.852-2.076 1.508s-1.005 1.457-1.311 2.403c-.291.947-.437 2.018-.437 3.212v2.993h-.874v-2.775zm-9.724-8.478h2.579v.83h-2.579v-.83zm17.634 17.371v-3.583h.874v4.414h-18.508v-.831h17.634zM351.9 91.826a10.06 10.06 0 0 1 1.027-4.479 11.1 11.1 0 0 1 2.863-3.671c1.238-1.049 2.717-1.872 4.435-2.469 1.719-.612 3.606-.918 5.66-.918 2.156 0 4.079.291 5.768.874 1.705.568 3.14 1.362 4.305 2.382a10.09 10.09 0 0 1 2.688 3.627c.626 1.398.939 2.921.939 4.567 0 1.588-.342 3.052-1.027 4.392-.67 1.34-1.631 2.498-2.884 3.474-1.238.962-2.731 1.718-4.48 2.272-1.733.539-3.67.808-5.812.808-2.025 0-3.867-.298-5.528-.895-1.646-.612-3.059-1.421-4.239-2.426s-2.098-2.156-2.753-3.452c-.641-1.311-.962-2.673-.962-4.086zm3.431 9.199c1.413 1.019 2.972 1.806 4.676 2.36 1.719.553 3.656.83 5.812.83 2.01 0 3.941-.277 5.791-.83 1.85-.539 3.481-1.341 4.894-2.404a12.13 12.13 0 0 0 3.387-3.911c.845-1.559 1.267-3.336 1.267-5.332 0-.976-.138-1.959-.415-2.95a12.92 12.92 0 0 0-1.136-2.884c-.481-.918-1.071-1.77-1.77-2.556a11.01 11.01 0 0 0-2.338-2.032 10.33 10.33 0 0 1 2.666 1.726 10.78 10.78 0 0 1 2.076 2.447c.568.903 1.005 1.886 1.311 2.95a11.39 11.39 0 0 1 .48 3.299c0 1.428-.204 2.753-.611 3.977a11.99 11.99 0 0 1-1.705 3.299 12.45 12.45 0 0 1-2.578 2.6c-.991.757-2.083 1.384-3.278 1.879-1.194.51-2.469.896-3.824 1.158-1.34.262-2.709.393-4.108.393-1.165 0-2.279-.094-3.343-.284-1.063-.175-2.054-.437-2.971-.786-.904-.335-1.719-.751-2.448-1.246s-1.34-1.063-1.835-1.704zm1.42-9.287c0 1.122.211 2.149.634 3.081.437.918 1.049 1.712 1.835 2.382.787.655 1.727 1.165 2.819 1.53 1.107.364 2.331.546 3.671.546 1.355 0 2.586-.182 3.693-.546 1.107-.379 2.061-.896 2.862-1.551a7 7 0 0 0 1.857-2.382c.437-.932.656-1.952.656-3.059a7.36 7.36 0 0 0-.656-3.081 7.78 7.78 0 0 0-1.835-2.556c-.787-.743-1.733-1.326-2.841-1.748-1.092-.437-2.301-.656-3.627-.656-1.384 0-2.636.211-3.758.634-1.107.408-2.054.976-2.841 1.704a7.56 7.56 0 0 0-1.835 2.535c-.423.976-.634 2.032-.634 3.168zm1.53.087a6.16 6.16 0 0 1 .546-2.578 6.09 6.09 0 0 1 1.53-2.098 7.3 7.3 0 0 1 2.381-1.398c.933-.35 1.96-.524 3.081-.524a8.89 8.89 0 0 1 2.076.24 7.57 7.57 0 0 1 1.857.655 6.27 6.27 0 0 1 1.508 1.071 4.89 4.89 0 0 1 1.049 1.398c-.962-.874-1.967-1.515-3.016-1.923-1.034-.408-2.206-.612-3.517-.612-.947 0-1.821.153-2.623.459s-1.5.721-2.097 1.245-1.064 1.136-1.399 1.835a5.09 5.09 0 0 0-.502 2.229 6.74 6.74 0 0 0 .24 1.835 4.71 4.71 0 0 0 .809 1.595c.393.481.91.918 1.551 1.311s1.442.743 2.404 1.049c-.874-.058-1.676-.24-2.404-.546a6.38 6.38 0 0 1-1.857-1.246 5.61 5.61 0 0 1-1.202-1.792c-.277-.685-.415-1.42-.415-2.207zm-34.393 6.927h4.807V84.659h-4.807v-3.715h9.505v3.649c.451-.583.99-1.136 1.617-1.661.641-.524 1.362-.983 2.163-1.377s1.675-.699 2.622-.918c.947-.233 1.959-.35 3.037-.35l1.202.044c.481.014.94.058 1.377.131v4.283a11.19 11.19 0 0 0-1.508-.24l-1.442-.066a9.7 9.7 0 0 0-3.322.568 8.43 8.43 0 0 0-2.775 1.617c-.815.699-1.485 1.559-2.01 2.578s-.845 2.185-.961 3.496v6.053h7.866v3.278h-17.371v-3.278zm11.034-4.086c0-1.369.175-2.593.525-3.671s.845-1.988 1.485-2.731a6.51 6.51 0 0 1 2.382-1.704c.933-.393 1.981-.59 3.147-.59a8.48 8.48 0 0 1 .939.066 11.83 11.83 0 0 1 1.18.153l1.268.284c.422.102.801.226 1.136.371v-5.157h.874v6.249a10.14 10.14 0 0 0-1.333-.459c-.466-.146-.947-.27-1.442-.371a12.42 12.42 0 0 0-1.399-.218 9.69 9.69 0 0 0-1.223-.088c-1.064 0-2.011.175-2.841.525-.816.35-1.508.852-2.076 1.508s-1.005 1.457-1.311 2.403c-.291.947-.437 2.018-.437 3.212v2.993h-.874v-2.775zm-9.723-8.478h2.578v.83h-2.578v-.83zm17.633 17.371v-3.583h.874v4.414h-18.507v-.831h17.633zm-47.612-4.807h4.807V84.659h-4.807v-3.715h9.505v3.649c.451-.583.99-1.136 1.617-1.661.641-.524 1.362-.983 2.163-1.377s1.675-.699 2.622-.918c.947-.233 1.959-.35 3.037-.35l1.202.044c.481.014.94.058 1.377.131v4.283a11.19 11.19 0 0 0-1.508-.24l-1.442-.066a9.7 9.7 0 0 0-3.322.568 8.43 8.43 0 0 0-2.775 1.617c-.815.699-1.485 1.559-2.01 2.578s-.845 2.185-.961 3.496v6.053h7.866v3.278H295.22v-3.278zm11.034-4.086c0-1.369.175-2.593.525-3.671s.845-1.988 1.486-2.731c.655-.743 1.449-1.311 2.381-1.704s1.981-.59 3.147-.59a8.48 8.48 0 0 1 .939.066 11.83 11.83 0 0 1 1.18.153l1.268.284c.422.102.801.226 1.136.371v-5.157h.874v6.249a10.14 10.14 0 0 0-1.333-.459c-.466-.146-.947-.27-1.442-.371a12.42 12.42 0 0 0-1.399-.218 9.69 9.69 0 0 0-1.223-.088c-1.064 0-2.011.175-2.841.525-.816.35-1.508.852-2.076 1.508s-1.005 1.457-1.311 2.403c-.291.947-.437 2.018-.437 3.212v2.993h-.874v-2.775zm-9.723-8.478h2.578v.83h-2.578v-.83zm17.633 17.371v-3.583h.874v4.414h-18.507v-.831h17.633zm-61.182-5.025h5.9V78.322h-5.9v-3.496h32.492v8.522h-4.916v-5.026h-16.541v8.609h10.969v2.731h-10.969v8.871h16.541v-5.026h4.916v8.522h-32.492v-3.496zm28.887-13.657h5.178v-8.959h.875v9.789h-6.053v-.83zm-16.279-5.026h14.05v.83h-13.176v4.938h-.874v-5.768zm-11.297 0h3.671v.83h-3.671v-.83zm11.297 11.34h10.947v-3.168h.874v3.999h-10.947v5.201h-.874v-6.031zm21.457 12.367v-8.827h.875v9.658h-33.629v-.831h32.754z" fill="#dbdbdb"/><defs><clipPath id="A"><path fill="#fff" d="M0 0h179v179H0z"/></clipPath></defs></svg>