<svg width="900" height="507" viewBox="0 0 900 507" fill="none" xmlns="http://www.w3.org/2000/svg">
<path d="M592.657 275.115C593.892 276.401 595.267 277.473 596.78 278.331C598.319 279.214 599.87 279.92 601.434 280.449C603.023 280.979 604.574 281.357 606.087 281.584C607.6 281.811 608.962 281.925 610.173 281.925C612.544 281.925 614.675 281.698 616.566 281.244C618.458 280.815 620.06 280.021 621.371 278.861C622.708 277.7 623.729 276.111 624.436 274.094C625.142 272.076 625.495 269.478 625.495 266.3V262.895C624.536 263.803 623.452 264.623 622.241 265.354C621.031 266.086 619.732 266.716 618.345 267.246C616.957 267.776 615.495 268.179 613.956 268.457C612.443 268.734 610.904 268.873 609.341 268.873C605.81 268.873 602.669 268.431 599.92 267.549C597.196 266.666 594.901 265.418 593.035 263.803C591.169 262.164 589.744 260.184 588.76 257.864C587.801 255.543 587.322 252.946 587.322 250.07C587.322 248.507 587.549 246.955 588.003 245.417C588.457 243.853 589.126 242.365 590.008 240.953C590.916 239.515 592.026 238.191 593.338 236.98C594.674 235.745 596.2 234.673 597.915 233.765C599.63 232.857 601.547 232.15 603.666 231.646C605.784 231.116 608.079 230.852 610.551 230.852C611.711 230.852 612.947 230.965 614.259 231.192C615.595 231.394 616.92 231.722 618.231 232.176C619.543 232.63 620.816 233.222 622.052 233.954C623.313 234.66 624.461 235.518 625.495 236.526V231.987H641.763V238.418H633.44V266.3C633.44 270.361 632.872 273.766 631.737 276.515C630.602 279.264 629.013 281.471 626.97 283.136C624.927 284.8 622.494 285.986 619.669 286.692C616.869 287.423 613.792 287.789 610.438 287.789C608.47 287.789 606.453 287.638 604.385 287.335C602.316 287.032 600.299 286.566 598.331 285.935C596.389 285.33 594.561 284.535 592.846 283.552C591.131 282.593 589.655 281.433 588.419 280.071L592.657 275.115ZM590.651 285.33C591.913 286.238 593.338 287.02 594.927 287.675C596.515 288.331 598.18 288.861 599.92 289.264C601.661 289.668 603.426 289.958 605.217 290.134C607.008 290.336 608.748 290.437 610.438 290.437C612.733 290.437 614.965 290.261 617.134 289.907C619.303 289.58 621.333 289.037 623.225 288.281C625.142 287.524 626.895 286.528 628.484 285.292C630.073 284.056 631.435 282.53 632.569 280.714C633.704 278.924 634.587 276.818 635.218 274.396C635.848 272 636.164 269.239 636.164 266.111V241.066H644.487V234.105H646V242.504H637.677V266.111C637.677 269.39 637.349 272.303 636.693 274.85C636.037 277.398 635.117 279.63 633.931 281.547C632.746 283.463 631.321 285.078 629.656 286.389C627.992 287.701 626.151 288.76 624.133 289.567C622.115 290.374 619.946 290.954 617.626 291.307C615.305 291.686 612.909 291.875 610.438 291.875C608.521 291.875 606.566 291.723 604.574 291.421C602.581 291.118 600.69 290.677 598.899 290.097C597.133 289.542 595.519 288.861 594.056 288.054C592.619 287.247 591.484 286.339 590.651 285.33ZM595.532 249.768C595.532 251.71 595.834 253.5 596.44 255.14C597.07 256.754 597.991 258.154 599.202 259.339C600.437 260.499 601.951 261.407 603.741 262.063C605.557 262.719 607.638 263.047 609.984 263.047C611.85 263.047 613.704 262.82 615.545 262.366C617.411 261.887 619.076 261.117 620.539 260.058C622.027 258.999 623.225 257.611 624.133 255.896C625.041 254.181 625.495 252.075 625.495 249.578C625.495 247.788 625.104 246.111 624.322 244.547C623.54 242.983 622.468 241.621 621.106 240.461C619.744 239.301 618.143 238.393 616.302 237.737C614.486 237.056 612.544 236.716 610.476 236.716C608.458 236.716 606.541 237.031 604.725 237.661C602.934 238.292 601.358 239.187 599.996 240.347C598.634 241.508 597.55 242.895 596.742 244.509C595.935 246.098 595.532 247.851 595.532 249.768ZM598.18 249.843C598.18 248.406 598.483 247.056 599.088 245.795C599.693 244.509 600.538 243.399 601.623 242.466C602.707 241.508 604.006 240.751 605.52 240.196C607.033 239.641 608.685 239.364 610.476 239.364C612.872 239.364 614.851 239.755 616.415 240.537C618.004 241.293 619.253 242.264 620.161 243.45C619.555 243.071 618.925 242.718 618.269 242.39C617.638 242.062 616.932 241.785 616.15 241.558C615.394 241.306 614.549 241.117 613.616 240.991C612.682 240.839 611.636 240.764 610.476 240.764C608.887 240.764 607.436 241.016 606.125 241.52C604.813 241.999 603.678 242.655 602.72 243.487C601.787 244.32 601.055 245.278 600.526 246.363C600.021 247.422 599.769 248.532 599.769 249.692C599.769 252.164 600.349 254.282 601.509 256.048C602.695 257.788 604.649 259.2 607.373 260.285C606.062 260.159 604.839 259.818 603.704 259.263C602.594 258.709 601.623 257.977 600.79 257.069C599.983 256.161 599.34 255.102 598.861 253.891C598.407 252.655 598.18 251.306 598.18 249.843ZM591.9 266.111C592.934 266.943 594.119 267.7 595.456 268.381C596.818 269.037 598.256 269.592 599.769 270.046C601.308 270.525 602.884 270.891 604.498 271.143C606.137 271.395 607.764 271.521 609.378 271.521C612.178 271.521 614.788 271.181 617.21 270.5C619.656 269.844 621.825 268.898 623.717 267.662L623.49 269.554C621.598 270.689 619.442 271.534 617.02 272.089C614.624 272.669 612.09 272.959 609.416 272.959C605.33 272.959 601.787 272.379 598.785 271.218C595.784 270.083 593.489 268.381 591.9 266.111Z" fill="#DBDBDB" fill-opacity="0.5"/>
<path d="M519.225 262.82H527.548V238.418H519.225V231.987H535.682V237.699C536.463 236.741 537.397 235.845 538.481 235.013C539.591 234.181 540.827 233.462 542.189 232.857C543.551 232.226 545.026 231.734 546.615 231.381C548.204 231.028 549.869 230.852 551.609 230.852C554.232 230.852 556.615 231.23 558.759 231.987C560.903 232.718 562.732 233.866 564.245 235.429C565.758 236.968 566.918 238.922 567.725 241.293C568.558 243.639 568.974 246.426 568.974 249.654V262.82H577.297V268.495H554.408V262.82H560.84V252.87C560.84 250.827 560.739 249.011 560.537 247.422C560.361 245.808 560.096 244.547 559.743 243.639C559.289 242.479 558.709 241.495 558.003 240.688C557.322 239.881 556.54 239.225 555.657 238.721C554.799 238.216 553.854 237.851 552.82 237.624C551.785 237.397 550.688 237.283 549.528 237.283C548.292 237.283 547.006 237.51 545.669 237.964C544.358 238.418 543.071 239.061 541.81 239.893C540.575 240.701 539.414 241.659 538.33 242.769C537.271 243.878 536.388 245.076 535.682 246.363V262.82H542.113V268.495H519.225V262.82ZM571.698 249.919C571.698 247.699 571.521 245.644 571.168 243.752C570.84 241.835 570.336 240.12 569.655 238.607C568.974 237.069 568.129 235.745 567.12 234.635C566.136 233.525 564.989 232.642 563.677 231.987C565.392 232.415 566.855 233.147 568.066 234.181C569.276 235.19 570.26 236.476 571.017 238.04C571.773 239.603 572.328 241.407 572.681 243.45C573.034 245.493 573.211 247.737 573.211 250.184V260.55H571.698V249.919ZM538.405 247.309C539.036 246.199 539.78 245.19 540.638 244.282C541.52 243.374 542.466 242.605 543.475 241.974C544.509 241.318 545.581 240.814 546.691 240.461C547.826 240.108 548.948 239.931 550.058 239.931C551.798 239.931 553.21 240.259 554.295 240.915C555.379 241.571 556.174 242.403 556.678 243.412C555.897 242.832 554.976 242.34 553.917 241.936C552.883 241.533 551.571 241.331 549.982 241.331C548.998 241.331 548.002 241.52 546.993 241.899C545.985 242.252 545.026 242.731 544.118 243.336C543.21 243.941 542.39 244.635 541.659 245.417C540.928 246.199 540.348 246.993 539.919 247.8V260.55H538.405V247.309ZM521.495 241.066H525.959V242.504H521.495V241.066ZM580.021 271.143V264.938H581.534V272.58H556.678V271.143H580.021ZM544.837 271.143V264.938H546.35V272.58H521.495V271.143H544.837Z" fill="#DBDBDB" fill-opacity="0.5"/>
<path d="M490.093 215H499.362V222.566H490.093V215ZM492.363 225.215H502.086V217.119H503.599V226.652H492.363V225.215ZM482.148 262.82H492.363L491.228 238.418H482.148V231.987H499.362V262.82H508.063V268.495H482.148V262.82ZM502.01 233.916H503.524V260.55H502.01V233.916ZM484.418 241.066H489.639V242.504H484.418V241.066ZM510.787 271.143V264.938H512.301V272.58H484.418V271.143H510.787Z" fill="#DBDBDB" fill-opacity="0.5"/>
<path d="M417.759 250.751C417.759 248.406 418.251 246.098 419.234 243.828C420.218 241.533 421.668 239.49 423.585 237.699C425.527 235.883 427.923 234.42 430.773 233.311C433.623 232.176 436.902 231.608 440.609 231.608C441.795 231.608 443.056 231.697 444.393 231.873C445.755 232.05 447.104 232.34 448.441 232.743C449.803 233.147 451.127 233.689 452.413 234.37C453.699 235.026 454.872 235.833 455.931 236.791V221.772H447.608V215.719H464.065V262.82H470.497V268.495H455.931V263.69C453.964 265.607 451.593 267.082 448.819 268.116C446.045 269.125 443.031 269.63 439.777 269.63C436.675 269.63 433.787 269.226 431.114 268.419C428.44 267.587 426.107 266.376 424.115 264.787C422.147 263.198 420.596 261.231 419.461 258.885C418.326 256.54 417.759 253.828 417.759 250.751ZM466.789 217.648H468.302V260.55H466.789V217.648ZM449.878 224.42H454.342V225.858H449.878V224.42ZM425.968 250.449C425.968 252.492 426.296 254.333 426.952 255.972C427.633 257.612 428.591 259.011 429.827 260.171C431.088 261.332 432.602 262.227 434.367 262.858C436.158 263.488 438.176 263.803 440.42 263.803C441.606 263.803 442.804 263.69 444.014 263.463C445.25 263.211 446.436 262.845 447.57 262.366C448.731 261.861 449.815 261.243 450.824 260.512C451.858 259.755 452.741 258.873 453.472 257.864C454.229 256.83 454.822 255.657 455.25 254.345C455.704 253.034 455.931 251.571 455.931 249.957C455.931 248.166 455.515 246.514 454.683 245.001C453.851 243.462 452.728 242.138 451.316 241.028C449.929 239.919 448.302 239.049 446.436 238.418C444.569 237.787 442.602 237.472 440.534 237.472C438.516 237.472 436.624 237.787 434.859 238.418C433.093 239.049 431.542 239.931 430.206 241.066C428.894 242.201 427.86 243.576 427.103 245.19C426.347 246.779 425.968 248.532 425.968 250.449ZM428.617 250.449C428.617 249.011 428.894 247.674 429.449 246.438C430.029 245.203 430.836 244.118 431.87 243.185C432.904 242.252 434.153 241.52 435.616 240.991C437.104 240.461 438.743 240.196 440.534 240.196C443.106 240.196 445.275 240.574 447.041 241.331C448.806 242.088 450.004 243.034 450.635 244.168C449.273 243.286 447.734 242.643 446.019 242.239C444.33 241.836 442.501 241.634 440.534 241.634C438.945 241.634 437.507 241.873 436.221 242.353C434.96 242.807 433.875 243.437 432.967 244.244C432.085 245.051 431.391 246.01 430.887 247.119C430.407 248.204 430.168 249.364 430.168 250.6C430.168 255.367 432.854 258.873 438.226 261.117C436.687 260.941 435.326 260.537 434.14 259.907C432.955 259.276 431.946 258.494 431.114 257.561C430.306 256.603 429.689 255.518 429.26 254.308C428.831 253.097 428.617 251.811 428.617 250.449ZM473.221 271.143V264.938H474.734V272.58H458.201V271.143H473.221ZM422.639 266.868C423.673 267.7 424.846 268.444 426.158 269.1C427.469 269.781 428.869 270.348 430.357 270.802C431.845 271.282 433.383 271.647 434.972 271.899C436.587 272.152 438.201 272.278 439.815 272.278C442.614 272.278 445.225 271.925 447.646 271.218C450.093 270.537 452.262 269.579 454.153 268.343V270.083C452.262 271.218 450.067 272.101 447.57 272.732C445.099 273.388 442.526 273.715 439.853 273.715C435.767 273.715 432.274 273.135 429.373 271.975C426.473 270.84 424.228 269.138 422.639 266.868Z" fill="#DBDBDB" fill-opacity="0.5"/>
<path d="M349.964 250.373C349.964 248.027 350.456 245.694 351.439 243.374C352.423 241.054 353.873 238.973 355.79 237.132C357.732 235.265 360.128 233.752 362.978 232.592C365.828 231.432 369.107 230.852 372.814 230.852C374 230.852 375.261 230.94 376.598 231.116C377.96 231.293 379.309 231.583 380.646 231.987C382.008 232.39 383.332 232.932 384.618 233.613C385.904 234.269 387.077 235.076 388.136 236.035V231.987H404.404V238.418H396.081V262.82H404.404V268.495H388.136V263.576C387.153 264.56 386.03 265.43 384.769 266.187C383.534 266.943 382.209 267.574 380.797 268.078C379.41 268.583 377.96 268.961 376.446 269.213C374.958 269.491 373.47 269.629 371.982 269.629C368.35 269.629 365.16 269.112 362.411 268.078C359.661 267.044 357.366 265.657 355.525 263.917C353.684 262.151 352.297 260.108 351.364 257.788C350.43 255.442 349.964 252.971 349.964 250.373ZM398.805 241.066H407.128V234.862H408.641V242.504H400.318V260.55H398.805V241.066ZM358.173 250.07C358.173 252.164 358.539 254.055 359.271 255.745C360.027 257.435 361.049 258.873 362.335 260.058C363.621 261.243 365.147 262.164 366.913 262.82C368.678 263.475 370.582 263.803 372.625 263.803C373.811 263.803 375.009 263.69 376.219 263.463C377.455 263.211 378.641 262.845 379.776 262.366C380.936 261.861 382.02 261.243 383.029 260.512C384.063 259.755 384.946 258.873 385.677 257.864C386.434 256.83 387.027 255.657 387.455 254.345C387.909 253.034 388.136 251.571 388.136 249.957C388.136 248.166 387.72 246.476 386.888 244.887C386.056 243.273 384.933 241.861 383.521 240.65C382.134 239.439 380.507 238.481 378.641 237.775C376.774 237.069 374.807 236.716 372.739 236.716C370.671 236.716 368.741 237.031 366.95 237.661C365.185 238.292 363.646 239.187 362.335 240.347C361.049 241.508 360.027 242.92 359.271 244.585C358.539 246.224 358.173 248.053 358.173 250.07ZM360.784 250.259C360.784 248.67 361.074 247.22 361.654 245.909C362.259 244.572 363.092 243.424 364.151 242.466C365.21 241.482 366.471 240.726 367.934 240.196C369.397 239.641 370.999 239.364 372.739 239.364C374.05 239.364 375.236 239.515 376.295 239.818C377.354 240.095 378.275 240.448 379.057 240.877C379.839 241.281 380.482 241.709 380.986 242.163C381.491 242.592 381.844 242.97 382.045 243.298C380.684 242.542 379.284 241.936 377.846 241.482C376.409 241.028 374.706 240.801 372.739 240.801C371.15 240.801 369.712 241.066 368.426 241.596C367.165 242.1 366.08 242.794 365.172 243.677C364.264 244.559 363.558 245.581 363.054 246.741C362.575 247.901 362.335 249.124 362.335 250.411C362.335 251.621 362.474 252.756 362.751 253.816C363.029 254.875 363.47 255.859 364.075 256.767C364.706 257.649 365.513 258.469 366.497 259.226C367.505 259.957 368.716 260.6 370.128 261.155C368.539 260.878 367.152 260.411 365.967 259.755C364.807 259.074 363.836 258.255 363.054 257.296C362.297 256.338 361.73 255.266 361.351 254.08C360.973 252.87 360.784 251.596 360.784 250.259ZM407.128 271.143V264.938H408.641V272.58H390.406V271.143H407.128ZM354.844 266.868C355.878 267.7 357.051 268.444 358.363 269.1C359.674 269.781 361.074 270.348 362.562 270.802C364.05 271.281 365.589 271.647 367.177 271.899C368.792 272.152 370.406 272.278 372.02 272.278C374.82 272.278 377.43 271.925 379.851 271.218C382.298 270.537 384.467 269.579 386.358 268.343V270.083C384.467 271.218 382.272 272.101 379.776 272.732C377.304 273.387 374.731 273.715 372.058 273.715C370.217 273.715 368.413 273.564 366.648 273.261C364.882 272.984 363.243 272.555 361.73 271.975C360.216 271.395 358.867 270.676 357.682 269.819C356.496 268.961 355.55 267.977 354.844 266.868Z" fill="#DBDBDB" fill-opacity="0.5"/>
<path d="M289.054 250.827C289.054 248.078 289.646 245.493 290.832 243.071C292.017 240.625 293.669 238.506 295.788 236.716C297.932 234.9 300.492 233.475 303.468 232.441C306.444 231.381 309.71 230.852 313.266 230.852C316.999 230.852 320.328 231.356 323.254 232.365C326.205 233.348 328.689 234.723 330.707 236.489C332.75 238.254 334.301 240.347 335.36 242.769C336.445 245.19 336.987 247.826 336.987 250.676C336.987 253.425 336.394 255.959 335.209 258.28C334.049 260.6 332.384 262.605 330.215 264.295C328.071 265.96 325.486 267.271 322.459 268.23C319.458 269.163 316.104 269.629 312.396 269.629C308.89 269.629 305.7 269.112 302.825 268.078C299.975 267.019 297.528 265.619 295.485 263.879C293.442 262.139 291.853 260.146 290.718 257.902C289.609 255.632 289.054 253.273 289.054 250.827ZM294.993 266.754C297.44 268.52 300.139 269.882 303.089 270.84C306.066 271.799 309.42 272.278 313.153 272.278C316.633 272.278 319.975 271.799 323.178 270.84C326.381 269.907 329.206 268.52 331.653 266.679C334.099 264.837 336.054 262.58 337.517 259.907C338.979 257.208 339.711 254.131 339.711 250.676C339.711 248.986 339.471 247.283 338.992 245.568C338.538 243.828 337.882 242.163 337.025 240.574C336.193 238.985 335.171 237.51 333.96 236.148C332.75 234.761 331.4 233.588 329.912 232.63C331.602 233.386 333.141 234.383 334.528 235.618C335.94 236.854 337.138 238.267 338.122 239.856C339.106 241.419 339.862 243.122 340.392 244.963C340.947 246.804 341.224 248.708 341.224 250.676C341.224 253.147 340.871 255.442 340.165 257.561C339.459 259.654 338.475 261.559 337.214 263.274C335.978 264.964 334.49 266.464 332.75 267.776C331.035 269.087 329.143 270.172 327.075 271.029C325.007 271.912 322.8 272.58 320.454 273.034C318.134 273.488 315.763 273.715 313.342 273.715C311.324 273.715 309.395 273.551 307.554 273.224C305.712 272.921 303.997 272.467 302.408 271.862C300.845 271.281 299.432 270.563 298.171 269.705C296.91 268.848 295.851 267.864 294.993 266.754ZM297.452 250.676C297.452 252.618 297.818 254.396 298.55 256.01C299.306 257.599 300.366 258.973 301.727 260.134C303.089 261.269 304.716 262.151 306.608 262.782C308.525 263.412 310.643 263.728 312.964 263.728C315.309 263.728 317.44 263.412 319.357 262.782C321.274 262.126 322.926 261.231 324.313 260.096C325.7 258.936 326.772 257.561 327.529 255.972C328.286 254.358 328.664 252.592 328.664 250.676C328.664 248.784 328.286 247.006 327.529 245.341C326.772 243.651 325.713 242.176 324.351 240.915C322.989 239.629 321.35 238.62 319.433 237.888C317.541 237.132 315.448 236.753 313.153 236.753C310.757 236.753 308.588 237.119 306.646 237.851C304.729 238.557 303.089 239.54 301.727 240.801C300.366 242.037 299.306 243.5 298.55 245.19C297.818 246.88 297.452 248.708 297.452 250.676ZM300.101 250.827C300.101 249.238 300.416 247.75 301.046 246.363C301.677 244.95 302.56 243.74 303.695 242.731C304.855 241.697 306.229 240.89 307.818 240.31C309.433 239.704 311.211 239.402 313.153 239.402C314.389 239.402 315.587 239.54 316.747 239.818C317.907 240.07 318.979 240.448 319.963 240.953C320.946 241.457 321.816 242.075 322.573 242.807C323.33 243.513 323.935 244.32 324.389 245.228C322.724 243.714 320.984 242.605 319.168 241.899C317.377 241.192 315.347 240.839 313.077 240.839C311.438 240.839 309.924 241.104 308.537 241.634C307.15 242.163 305.939 242.882 304.905 243.79C303.871 244.698 303.064 245.757 302.484 246.968C301.904 248.179 301.614 249.465 301.614 250.827C301.614 251.962 301.753 253.021 302.03 254.005C302.308 254.988 302.774 255.909 303.43 256.767C304.111 257.599 305.006 258.356 306.116 259.036C307.226 259.717 308.613 260.323 310.278 260.852C308.764 260.752 307.377 260.436 306.116 259.907C304.88 259.352 303.808 258.633 302.9 257.75C302.018 256.867 301.324 255.833 300.819 254.648C300.34 253.463 300.101 252.189 300.101 250.827Z" fill="#DBDBDB" fill-opacity="0.5"/>
<path d="M253 262.82H261.323V221.394H253V215.719H269.457V262.82H277.78V268.495H253V262.82ZM272.105 217.648H273.619V260.55H272.105V217.648ZM255.27 224.042H259.734V225.479H255.27V224.042ZM280.504 271.143V264.938H282.017V272.58H255.27V271.143H280.504Z" fill="#DBDBDB" fill-opacity="0.5"/>
</svg>
