<svg width="687" height="128" viewBox="0 0 687 128" fill="none" xmlns="http://www.w3.org/2000/svg">
<path d="M2.6 98V90.4H11.2V37.4H2.8V29.8H40.9V37.4H27.1V98H2.6ZM27.1 98V89.8H63.9V98H27.1ZM46.4 89.8C49.8667 89.8 52.2667 89.0333 53.6 87.5C55 85.9667 55.7 83.4333 55.7 79.9V72.8H63.9V89.8H46.4ZM70.4664 98V90.5H78.5664V53.9H71.2664V46.4H93.7664V90.5H100.866V98H70.4664ZM85.5664 41.4C82.9664 41.4 80.8331 40.6333 79.1664 39.1C77.4997 37.5667 76.6664 35.5 76.6664 32.9C76.6664 30.2333 77.4997 28.1333 79.1664 26.6C80.8331 25.0667 82.9664 24.3 85.5664 24.3C88.2331 24.3 90.3664 25.0667 91.9664 26.6C93.6331 28.1333 94.4664 30.2333 94.4664 32.9C94.4664 35.5 93.6331 37.5667 91.9664 39.1C90.3664 40.6333 88.2331 41.4 85.5664 41.4ZM140.127 98V90.5H145.927V63C145.927 60.4 145.227 58.5 143.827 57.3C142.494 56.0333 140.661 55.4 138.327 55.4C136.661 55.4 135.094 55.7333 133.627 56.4C132.227 57.0667 131.061 58.2 130.127 59.8C129.261 61.3333 128.827 63.4333 128.827 66.1H126.427C126.427 61.7667 126.961 58.0667 128.027 55C129.161 51.8667 131.027 49.5 133.627 47.9C136.227 46.3 139.761 45.5 144.227 45.5C149.094 45.5 153.094 46.8667 156.227 49.6C159.427 52.2667 161.027 56.5667 161.027 62.5V90.5H167.127V98H140.127ZM105.427 98V90.5H113.527V53.9H106.227V46.4H127.027V62.9L128.827 62.6V90.5H134.627V98H105.427ZM199.136 99.1C194.003 99.1 189.436 98.0667 185.436 96C181.436 93.8667 178.303 90.8 176.036 86.8C173.836 82.7333 172.736 77.8667 172.736 72.2C172.736 66.4667 173.836 61.6 176.036 57.6C178.303 53.6 181.403 50.5333 185.336 48.4C189.336 46.2667 193.869 45.2 198.936 45.2L199.336 52.5C197.003 52.5 194.969 53.1333 193.236 54.4C191.569 55.6 190.269 57.5667 189.336 60.3C188.403 62.9667 187.936 66.5 187.936 70.9C187.936 76.3 189.236 80.5667 191.836 83.7C194.436 86.7667 198.069 88.3 202.736 88.3C205.536 88.3 207.836 87.8 209.636 86.8C211.503 85.7333 212.936 84.3667 213.936 82.7C215.003 81.0333 215.703 79.2667 216.036 77.4H223.836C223.703 80.2 223.103 82.9 222.036 85.5C220.969 88.1 219.403 90.4333 217.336 92.5C215.336 94.5 212.803 96.1 209.736 97.3C206.736 98.5 203.203 99.1 199.136 99.1ZM180.136 72V64.9H208.936L224.036 69.2V72H180.136ZM208.936 64.9C208.869 62.5 208.469 60.4 207.736 58.6C207.003 56.7333 205.936 55.2667 204.536 54.2C203.136 53.0667 201.403 52.5 199.336 52.5L198.936 45.2C204.403 45.2 208.969 46.2333 212.636 48.3C216.369 50.3 219.203 53.1 221.136 56.7C223.069 60.3 224.036 64.4667 224.036 69.2L208.936 64.9ZM265.323 98V90.5H271.123V63C271.123 60.4 270.423 58.5 269.023 57.3C267.689 56.0333 265.856 55.4 263.523 55.4C261.856 55.4 260.289 55.7333 258.823 56.4C257.423 57.0667 256.256 58.2 255.323 59.8C254.456 61.3333 254.023 63.4333 254.023 66.1H251.623C251.623 61.7667 252.156 58.0667 253.223 55C254.356 51.8667 256.223 49.5 258.823 47.9C261.423 46.3 264.956 45.5 269.423 45.5C274.289 45.5 278.289 46.8667 281.423 49.6C284.623 52.2667 286.223 56.5667 286.223 62.5V90.5H292.323V98H265.323ZM230.623 98V90.5H238.723V53.9H231.423V46.4H252.223V62.9L254.023 62.6V90.5H259.823V98H230.623ZM335.669 98V90.4H348.269V29.8H364.269V90.4H376.869V98H335.669ZM322.169 55.2V37.8H339.469C336.135 37.8 333.769 38.5667 332.369 40.1C330.969 41.6333 330.269 44.2 330.269 47.8V55.2H322.169ZM322.169 37.8V29.8H390.369V37.8H322.169ZM382.169 47.8C382.169 44.2 381.469 41.6333 380.069 40.1C378.735 38.5667 376.369 37.8 372.969 37.8H390.369V55.2H382.169V47.8ZM396.438 98V90.5H404.238V36.1H396.938V28.5H419.438V90.5H425.238V98H396.438ZM430.738 98V90.5H436.538V62.9C436.538 60.3 435.838 58.4 434.438 57.2C433.105 55.9333 431.272 55.3 428.938 55.3C427.272 55.3 425.705 55.6667 424.238 56.4C422.838 57.0667 421.672 58.1667 420.738 59.7C419.872 61.2333 419.438 63.3333 419.438 66H418.238C418.238 61.6667 418.772 58 419.838 55C420.905 51.9333 422.672 49.6 425.138 48C427.672 46.4 431.105 45.6 435.438 45.6C440.238 45.6 444.138 46.9667 447.138 49.7C450.138 52.3667 451.638 56.6667 451.638 62.6V90.5H457.738V98H430.738ZM489.663 99.1C484.53 99.1 479.963 98.0667 475.963 96C471.963 93.8667 468.83 90.8 466.563 86.8C464.363 82.7333 463.263 77.8667 463.263 72.2C463.263 66.4667 464.363 61.6 466.563 57.6C468.83 53.6 471.93 50.5333 475.863 48.4C479.863 46.2667 484.397 45.2 489.463 45.2L489.863 52.5C487.53 52.5 485.497 53.1333 483.763 54.4C482.097 55.6 480.797 57.5667 479.863 60.3C478.93 62.9667 478.463 66.5 478.463 70.9C478.463 76.3 479.763 80.5667 482.363 83.7C484.963 86.7667 488.597 88.3 493.263 88.3C496.063 88.3 498.363 87.8 500.163 86.8C502.03 85.7333 503.463 84.3667 504.463 82.7C505.53 81.0333 506.23 79.2667 506.563 77.4H514.363C514.23 80.2 513.63 82.9 512.563 85.5C511.497 88.1 509.93 90.4333 507.863 92.5C505.863 94.5 503.33 96.1 500.263 97.3C497.263 98.5 493.73 99.1 489.663 99.1ZM470.663 72V64.9H499.463L514.563 69.2V72H470.663ZM499.463 64.9C499.397 62.5 498.997 60.4 498.263 58.6C497.53 56.7333 496.463 55.2667 495.063 54.2C493.663 53.0667 491.93 52.5 489.863 52.5L489.463 45.2C494.93 45.2 499.497 46.2333 503.163 48.3C506.897 50.3 509.73 53.1 511.663 56.7C513.597 60.3 514.563 64.4667 514.563 69.2L499.463 64.9ZM521.15 98V90.5H529.25V53.9H521.95V46.4H542.35V63.4L544.25 63.2V90.5H549.45V98H521.15ZM553.65 98V90.5H558.85V62.4C558.85 60.0667 558.25 58.3333 557.05 57.2C555.917 56 554.317 55.4 552.25 55.4C550.85 55.4 549.517 55.7 548.25 56.3C547.05 56.9 546.083 57.9 545.35 59.3C544.617 60.7 544.25 62.6 544.25 65L541.75 65.1C541.75 61.0333 542.217 57.5667 543.15 54.7C544.15 51.7667 545.85 49.5 548.25 47.9C550.65 46.3 553.917 45.5 558.05 45.5C562.717 45.5 566.517 46.8333 569.45 49.5C572.383 52.1 573.85 56.3 573.85 62.1V90.5H579.05V98H553.65ZM583.25 98V90.5H588.45V62.4C588.45 60.0667 587.85 58.3333 586.65 57.2C585.517 56 583.917 55.4 581.85 55.4C580.45 55.4 579.117 55.7 577.85 56.3C576.65 56.9 575.683 57.9 574.95 59.3C574.217 60.7 573.85 62.6 573.85 65L572.15 65.1C572.15 61.0333 572.617 57.5667 573.55 54.7C574.55 51.7667 576.217 49.5 578.55 47.9C580.883 46.3 584.083 45.5 588.15 45.5C592.683 45.5 596.35 46.8333 599.15 49.5C602.017 52.1667 603.45 56.4333 603.45 62.3V90.5H609.45V98H583.25ZM641.421 99.1C636.288 99.1 631.721 98.0667 627.721 96C623.721 93.8667 620.588 90.8 618.321 86.8C616.121 82.7333 615.021 77.8667 615.021 72.2C615.021 66.4667 616.121 61.6 618.321 57.6C620.588 53.6 623.688 50.5333 627.621 48.4C631.621 46.2667 636.154 45.2 641.221 45.2L641.621 52.5C639.288 52.5 637.254 53.1333 635.521 54.4C633.854 55.6 632.554 57.5667 631.621 60.3C630.688 62.9667 630.221 66.5 630.221 70.9C630.221 76.3 631.521 80.5667 634.121 83.7C636.721 86.7667 640.354 88.3 645.021 88.3C647.821 88.3 650.121 87.8 651.921 86.8C653.788 85.7333 655.221 84.3667 656.221 82.7C657.288 81.0333 657.988 79.2667 658.321 77.4H666.121C665.988 80.2 665.388 82.9 664.321 85.5C663.254 88.1 661.688 90.4333 659.621 92.5C657.621 94.5 655.088 96.1 652.021 97.3C649.021 98.5 645.488 99.1 641.421 99.1ZM622.421 72V64.9H651.221L666.321 69.2V72H622.421ZM651.221 64.9C651.154 62.5 650.754 60.4 650.021 58.6C649.288 56.7333 648.221 55.2667 646.821 54.2C645.421 53.0667 643.688 52.5 641.621 52.5L641.221 45.2C646.688 45.2 651.254 46.2333 654.921 48.3C658.654 50.3 661.488 53.1 663.421 56.7C665.354 60.3 666.321 64.4667 666.321 69.2L651.221 64.9Z" fill="#2C2C2C"/>
</svg>
