<?xml version="1.0" standalone="no"?><!DOCTYPE svg PUBLIC "-//W3C//DTD SVG 1.1//EN" "http://www.w3.org/Graphics/SVG/1.1/DTD/svg11.dtd"><svg t="1744808835402" class="icon" viewBox="0 0 1024 1024" version="1.1" xmlns="http://www.w3.org/2000/svg" p-id="3654" xmlns:xlink="http://www.w3.org/1999/xlink" width="128" height="128"><path d="M983.8 312.7C958 251.7 921 197 874 150c-47-47-101.7-84-162.7-109.7C648.2 13.5 581.1 0 512 0S375.8 13.5 312.7 40.3C251.7 66 197 103 150 150c-47 47-84 101.7-109.7 162.7C13.5 375.8 0 442.9 0 512s13.5 136.2 40.3 199.3C66 772.3 103 827 150 874c47 47 101.8 83.9 162.7 109.7 63.1 26.7 130.2 40.3 199.3 40.3s136.2-13.5 199.3-40.3C772.3 958 827 921 874 874c47-47 83.9-101.8 109.7-162.7 26.7-63.1 40.3-130.2 40.3-199.3s-13.5-136.2-40.2-199.3zM742 726.8c-5.7 3.3-11.9 4.8-18 4.8-12.4 0-24.5-6.5-31.2-18L618 584H406l-74.8 129.6c-9.9 17.2-32 23.1-49.2 13.2-17.2-9.9-23.1-32-13.2-49.2l212-367.2c6.4-11.1 18.3-18 31.2-18s24.7 6.9 31.2 18l212 367.2c9.9 17.2 4 39.2-13.2 49.2z" p-id="3655" fill="#0f730c"></path><path d="M447.6 512h128.8L512 400.4z" p-id="3656" fill="#0f730c"></path></svg>