<?xml version="1.0" standalone="no"?><!DOCTYPE svg PUBLIC "-//W3C//DTD SVG 1.1//EN" "http://www.w3.org/Graphics/SVG/1.1/DTD/svg11.dtd"><svg t="1753834894086" class="icon" viewBox="0 0 1024 1024" version="1.1" xmlns="http://www.w3.org/2000/svg" p-id="9134" data-spm-anchor-id="a313x.search_index.0.i8.6f3f3a81S6CwyM" xmlns:xlink="http://www.w3.org/1999/xlink" width="128" height="128"><path d="M938.666667 512c0 235.306667-191.402667 426.666667-426.666667 426.666667S85.333333 747.306667 85.333333 512C85.333333 276.736 276.736 85.333333 512 85.333333s426.666667 191.402667 426.666667 426.666667z" fill="#bfbfbf" opacity=".4" p-id="9135"></path><path d="M692.053333 450.432a31.872 31.872 0 0 1-9.301333 22.613333l-148.053333 148.736a32.042667 32.042667 0 0 1-45.354667 0l-148.138667-148.778666a31.957333 31.957333 0 1 1 45.354667-45.141334L512 553.898667l125.44-126.037334a32 32 0 0 1 54.613333 22.613334z" fill="#bfbfbf" p-id="9136"></path></svg>