<?xml version="1.0" standalone="no"?><!DOCTYPE svg PUBLIC "-//W3C//DTD SVG 1.1//EN" "http://www.w3.org/Graphics/SVG/1.1/DTD/svg11.dtd"><svg t="1742910352533" class="icon" viewBox="0 0 1024 1024" version="1.1" xmlns="http://www.w3.org/2000/svg" p-id="5863" xmlns:xlink="http://www.w3.org/1999/xlink" width="128" height="128"><path d="M297.69728 81.92a132.25984 132.25984 0 0 0-132.25984 132.38272v231.56736h-99.328c-18.18624 0-33.05472 14.86848-33.05472 33.0752v198.49216c0 18.20672 14.86848 33.0752 33.0752 33.0752h99.328v99.18464A132.25984 132.25984 0 0 0 297.6768 942.08h397.02528a132.38272 132.38272 0 0 0 132.38272-132.38272V346.54208c0-35.06176-32.768-68.8128-90.3168-125.37856L712.2944 196.68992 687.86176 172.2368C631.296 114.688 597.56544 81.92 562.46272 81.92H297.69728z m0 66.12992h241.2544c23.81824 5.9392 23.51104 35.38944 23.51104 64.512v100.92544c0 18.18624 14.86848 33.0752 33.05472 33.0752h99.20512c33.0752 0 66.2528-0.04096 66.2528 33.05472v430.08a66.51904 66.51904 0 0 1-66.2528 66.2528H297.69728a66.39616 66.39616 0 0 1-66.12992-66.2528v-99.18464h330.89536c18.20672 0 33.0752-14.86848 33.0752-33.05472v-198.51264c0-18.20672-14.86848-33.0752-33.0752-33.0752H231.56736V214.30272a66.39616 66.39616 0 0 1 66.12992-66.2528zM262.7584 490.0864h16.91648l54.84544 148.3776h-19.3536l-16.11776-45.95712h-54.84544l-16.11776 45.95712h-19.37408l54.04672-148.3776z m-91.136 0.8192h18.55488v145.14176c0 13.45536-3.4816 23.6544-10.48576 30.65856-6.98368 7.51616-16.93696 11.264-29.83936 11.264a43.6224 43.6224 0 0 1-15.31904-2.39616v-16.13824c5.38624 1.08544 10.752 1.61792 16.11776 1.61792 7.00416 0 12.10368-1.88416 15.33952-5.65248 3.74784-3.76832 5.632-9.4208 5.632-16.93696V490.9056z m183.05024 0h35.49184c17.73568 0 30.9248 3.4816 39.5264 10.48576 8.6016 6.9632 12.9024 17.46944 12.9024 31.4368 0 19.3536-9.68704 32.52224-29.04064 39.5264l40.30464 66.10944h-21.77024l-35.47136-61.27616h-23.38816v61.27616h-18.5344V490.9056z m18.55488 16.11776v54.84544h16.93696c11.28448 0 19.61984-2.41664 24.9856-7.2704 5.38624-4.83328 8.06912-11.81696 8.06912-20.95104 0-9.15456-2.68288-15.872-8.04864-20.1728-4.85376-4.3008-13.45536-6.4512-25.8048-6.4512h-16.13824z m-101.60128 3.23584a144.67072 144.67072 0 0 1-7.24992 23.38816l-14.5408 42.74176h43.56096l-15.31904-42.74176a143.27808 143.27808 0 0 1-6.4512-23.38816z" fill="#324558" p-id="5864"></path><path d="M20.48 430.08m40.96 0l512 0q40.96 0 40.96 40.96l0 204.8q0 40.96-40.96 40.96l-512 0q-40.96 0-40.96-40.96l0-204.8q0-40.96 40.96-40.96Z" fill="#B6C2CD" p-id="5865"></path><path d="M117.82144 637.50144c-10.01472-0.04096-18.6368-2.49856-25.84576-7.39328-7.168-4.89472-12.6976-11.96032-16.5888-21.23776-3.82976-9.27744-5.7344-20.41856-5.69344-33.44384 0-13.0048 1.92512-24.08448 5.77536-33.23904 3.87072-9.15456 9.40032-16.11776 16.5888-20.8896 7.20896-4.79232 15.79008-7.20896 25.76384-7.20896s18.5344 2.41664 25.72288 7.20896c7.20896 4.8128 12.75904 11.79648 16.62976 20.95104 3.8912 9.1136 5.79584 20.1728 5.75488 33.1776 0 13.06624-1.92512 24.22784-5.81632 33.50528-3.82976 9.27744-9.33888 16.34304-16.52736 21.23776-7.168 4.89472-15.7696 7.33184-25.76384 7.33184z m0-20.8896c6.81984 0 12.288-3.44064 16.34304-10.30144 4.07552-6.8608 6.08256-17.16224 6.06208-30.88384 0-9.05216-0.94208-16.5888-2.80576-22.58944-1.82272-6.00064-4.42368-10.52672-7.7824-13.55776a16.9984 16.9984 0 0 0-11.81696-4.52608c-6.79936 0-12.22656 3.3792-16.30208 10.17856-4.05504 6.77888-6.12352 16.95744-6.144 30.49472 0 9.15456 0.90112 16.7936 2.72384 22.91712 1.8432 6.08256 4.48512 10.6496 7.84384 13.7216a17.2032 17.2032 0 0 0 11.8784 4.54656z m117.92384-100.88448V634.88h-25.1904v-95.232h-0.7168l-27.27936 17.1008v-22.34368l29.4912-18.67776h23.69536z m75.03872 121.77408c-10.01472-0.04096-18.6368-2.49856-25.84576-7.39328-7.168-4.89472-12.6976-11.96032-16.5888-21.23776-3.82976-9.27744-5.7344-20.41856-5.69344-33.44384 0-13.0048 1.92512-24.08448 5.77536-33.23904 3.87072-9.15456 9.40032-16.11776 16.5888-20.8896 7.18848-4.79232 15.79008-7.20896 25.76384-7.20896 9.95328 0 18.5344 2.41664 25.7024 7.20896 7.22944 4.8128 12.75904 11.79648 16.65024 20.95104 3.8912 9.1136 5.79584 20.1728 5.75488 33.1776 0 13.06624-1.9456 24.22784-5.81632 33.50528-3.82976 9.27744-9.33888 16.34304-16.52736 21.23776-7.168 4.89472-15.7696 7.33184-25.76384 7.33184z m0-20.8896c6.81984 0 12.288-3.44064 16.34304-10.30144 4.07552-6.8608 6.08256-17.16224 6.0416-30.88384 0-9.05216-0.9216-16.5888-2.78528-22.58944-1.82272-6.00064-4.42368-10.52672-7.7824-13.55776a16.9984 16.9984 0 0 0-11.81696-4.52608c-6.79936 0-12.22656 3.3792-16.30208 10.17856-4.07552 6.77888-6.12352 16.95744-6.144 30.49472 0 9.15456 0.90112 16.7936 2.72384 22.91712 1.8432 6.08256 4.46464 10.6496 7.84384 13.7216a17.2032 17.2032 0 0 0 11.8784 4.54656z m117.92384-100.88448V634.88h-25.1904v-95.232h-0.7168l-27.27936 17.1008v-22.34368l29.4912-18.67776h23.69536z m75.03872 121.77408c-10.01472-0.04096-18.6368-2.49856-25.84576-7.39328-7.168-4.89472-12.6976-11.96032-16.5888-21.23776-3.82976-9.27744-5.7344-20.41856-5.69344-33.44384 0-13.0048 1.92512-24.08448 5.75488-33.23904 3.8912-9.15456 9.4208-16.11776 16.5888-20.8896 7.20896-4.79232 15.81056-7.20896 25.78432-7.20896 9.95328 0 18.5344 2.41664 25.7024 7.20896 7.20896 4.8128 12.75904 11.79648 16.65024 20.95104 3.8912 9.1136 5.79584 20.1728 5.75488 33.1776 0 13.06624-1.9456 24.22784-5.81632 33.50528-3.85024 9.27744-9.33888 16.34304-16.52736 21.23776-7.168 4.89472-15.7696 7.33184-25.76384 7.33184z m0-20.8896c6.81984 0 12.26752-3.44064 16.34304-10.30144 4.07552-6.8608 6.08256-17.16224 6.0416-30.88384 0-9.05216-0.9216-16.5888-2.78528-22.58944-1.82272-6.00064-4.42368-10.52672-7.7824-13.55776a16.9984 16.9984 0 0 0-11.81696-4.52608c-6.79936 0-12.22656 3.3792-16.30208 10.17856-4.07552 6.77888-6.144 16.95744-6.16448 30.49472 0 9.15456 0.90112 16.7936 2.74432 22.91712 1.8432 6.08256 4.46464 10.6496 7.84384 13.7216a17.2032 17.2032 0 0 0 11.8784 4.54656z" fill="#324558" p-id="5866"></path></svg>