<svg width="256" height="256" viewBox="0 0 256 256" fill="none" xmlns="http://www.w3.org/2000/svg">
<path d="M118.561 115.201H218.827V215.376H118.561V115.201Z" fill="#2C2C2C" fill-opacity="0.5"/>
<path d="M193.917 177.947H207.969V197.413H193.921V208.661H188.014V197.413H174.043V177.947H188.014V171.459H193.917V177.947ZM179.993 183.628V191.728H188.014V183.628H179.989H179.993ZM193.917 191.728H202.062V183.628H193.917V191.728Z" fill="white"/>
<path d="M41.6509 47.4543H168.55V174.238H41.6509V47.4543Z" fill="#2C2C2C"/>
<path d="M68.8052 135.851V85.8462H100.515V95.8397H80.8307V105.11H97.5516V115.178H80.8307V125.783H101.254V135.851H68.8052ZM110.182 135.851V97.6595H119.923L120.796 102.425H120.998C124.156 99.3375 128.052 96.7198 133.225 96.7198C141.556 96.7198 145.116 102.686 145.116 112.225V135.851H133.158V113.701C133.158 108.399 131.74 106.915 128.724 106.915C126.037 106.915 124.424 108.13 122.14 110.345V135.851H110.182Z" fill="white"/>
</svg>
