<svg t="1736591974700" class="icon" viewBox="0 0 1024 1024" version="1.1" xmlns="http://www.w3.org/2000/svg" p-id="5083" width="200" height="200"><path d="M512 93.09c231.238 0 418.91 187.672 418.91 418.91 0 231.238-187.672 418.91-418.91 418.91-231.238 0-418.91-187.672-418.91-418.91 0-231.238 187.672-418.91 418.91-418.91z" fill="#06D387" p-id="5084"></path><path d="M512 314.18c-109.196 0-197.82 88.624-197.82 197.82s88.624 197.82 197.82 197.82c72.006 0 135.03-38.498 169.648-96.062L613.8 573.086c-29.512 49.164-89.954 70.2-143.612 49.984-53.66-20.22-85.194-75.906-74.926-132.32 10.268-56.416 59.4-97.426 116.74-97.44 43.244 0 81.106 23.104 101.836 57.644l67.812-40.752A197.78 197.78 0 0 0 512 314.182z" fill="#FFFFFF" p-id="5085"></path></svg>