<svg width="256" height="256" viewBox="0 0 256 256" fill="none" xmlns="http://www.w3.org/2000/svg">
<path d="M118.532 115.06H218.824V215.352H118.532V115.06Z" fill="#2C2C2C" fill-opacity="0.5"/>
<path d="M172.698 204.407V180.368H188.236V185.172H178.59V189.629H186.784V194.469H178.59V199.567H188.598V204.407H172.698ZM192.973 204.407V186.047H197.746L198.174 188.338H198.273C199.82 186.854 201.73 185.595 204.265 185.595C208.347 185.595 210.091 188.464 210.091 193.049V204.407H204.232V193.759C204.232 191.21 203.537 190.496 202.059 190.496C200.742 190.496 199.952 191.081 198.833 192.146V204.407H192.973Z" fill="white"/>
<path d="M42.1333 47.1331H169.065V174.065H42.1333V47.1331Z" fill="#2C2C2C"/>
<path d="M111.162 86.7211H138.213V124.584H111.169V146.461H99.7975V124.584H72.9028V86.7211H99.7975V74.1025H111.162V86.7211ZM84.3566 97.7716V113.526H99.7975V97.7716H84.3491H84.3566ZM111.162 113.526H126.842V97.7716H111.162V113.526Z" fill="white"/>
</svg>
