<?xml version="1.0" standalone="no"?><!DOCTYPE svg PUBLIC "-//W3C//DTD SVG 1.1//EN" "http://www.w3.org/Graphics/SVG/1.1/DTD/svg11.dtd"><svg t="1750514666845" class="icon" viewBox="0 0 1024 1024" version="1.1" xmlns="http://www.w3.org/2000/svg" p-id="4978" xmlns:xlink="http://www.w3.org/1999/xlink" width="128" height="128"><path d="M800 149.333333A138.666667 138.666667 0 0 1 938.666667 288v448.128a138.666667 138.666667 0 0 1-138.666667 138.666667H224A138.666667 138.666667 0 0 1 85.333333 736.128V288.042667A138.666667 138.666667 0 0 1 224 149.333333h576z m0 64H224A74.666667 74.666667 0 0 0 149.333333 288v448.128c0 41.258667 33.450667 74.666667 74.666667 74.666667h576a74.666667 74.666667 0 0 0 74.666667-74.666667V288.042667A74.666667 74.666667 0 0 0 800 213.333333zM357.461333 383.744c13.397333 0 24.490667 9.856 26.410667 22.741333l0.256 3.925334v202.752a26.666667 26.666667 0 0 1-53.034667 3.925333l-0.298666-3.925333v-73.984H267.605333v74.709333a26.666667 26.666667 0 0 1-53.034666 3.968l-0.298667-3.968V411.093333a26.666667 26.666667 0 0 1 53.034667-3.925333l0.298666 3.925333v74.709334h63.146667l0.042667-75.434667c0-14.72 11.946667-26.666667 26.666666-26.666667z m376.448 0.981333a76.970667 76.970667 0 0 1 43.52 140.458667l31.573334 78.250667a26.666667 26.666667 0 0 1-47.573334 23.808l-1.92-3.882667-34.133333-84.693333h-31.658667v74.709333c0 32.256-43.818667 35.285333-52.053333 9.045333l-0.938667-4.352-0.341333-4.650666-0.213333-202.026667c0-13.397333 9.813333-24.490667 22.698666-26.410667l3.968-0.256H733.866667z m-248.576-0.426666a112 112 0 0 1 111.786667 104.917333l0.213333 7.082667v31.658666a112 112 0 0 1-104.917333 111.786667l-7.082667 0.213333h-32a26.666667 26.666667 0 0 1-26.410666-22.741333L426.666667 613.248V410.88c0-13.397333 9.813333-24.490667 22.698666-26.368l3.968-0.298667h32z m0 53.333333h-5.376v148.949333h5.376c30.506667 0 55.594667-23.253333 58.453334-52.992l0.213333-5.632v-31.658666c0-30.506667-23.253333-55.552-52.992-58.410667l-5.674667-0.256z m208.213334 0.384v47.317333h40.362666a23.637333 23.637333 0 0 0 3.84-46.976l-3.84-0.298666-40.405333-0.042667z" fill="#212121" p-id="4979"></path></svg>