<?xml version="1.0" standalone="no"?><!DOCTYPE svg PUBLIC "-//W3C//DTD SVG 1.1//EN" "http://www.w3.org/Graphics/SVG/1.1/DTD/svg11.dtd"><svg t="1750514716869" class="icon" viewBox="0 0 1024 1024" version="1.1" xmlns="http://www.w3.org/2000/svg" p-id="7015" xmlns:xlink="http://www.w3.org/1999/xlink" width="128" height="128"><path d="M768 725.333333L139.52 96.853333 85.333333 151.466667l170.666667 170.666666V469.333333H170.666667V298.666667H85.333333v426.666666h85.333334v-170.666666h85.333333v170.666666h85.333333V407.466667l42.666667 42.666666V725.333333h170.666667c28.586667 0 53.76-14.08 69.12-35.84l270.506666 270.506667 54.186667-54.186667L768 725.333333z m-213.333333-85.333333h-85.333334v-104.533333l85.333334 85.333333V640z m213.333333-85.333333h42.666667l34.986666 139.52 31.146667 31.146666H938.666667l-50.773334-177.92c29.866667-13.226667 50.773333-43.093333 50.773334-78.08V384c0-46.933333-38.4-85.333333-85.333334-85.333333h-170.666666v232.533333l85.333333 85.333333V554.666667z m0-170.666667h85.333333v85.333333h-85.333333V384z m-128 104.533333V384c0-46.933333-38.4-85.333333-85.333333-85.333333h-104.533334L640 488.533333z" p-id="7016"></path></svg>