<svg t="1770982352451" class="icon" viewBox="0 0 1024 1024" version="1.1" xmlns="http://www.w3.org/2000/svg" p-id="4586" width="200" height="200">
  <path d="M0 161.422222C7.395556 115.2 50.915556 79.928889 97.991111 85.333333h828.017778c46.364444-5.262222 87.608889 28.444444 97.991111 72.675556v704.426667c-7.395556 46.364444-50.915556 81.635556-98.133333 76.231111H97.991111C51.626667 944.071111 10.24 910.222222 0 865.848889V161.422222m202.524444 296.106667c-41.102222 21.617778-41.102222 87.466667 0.142223 109.084444 39.253333 26.026667 97.848889-7.822222 95.146666-54.613333 2.702222-46.933333-56.035556-80.64-95.288889-54.471111m272.924445 2.844444c-28.16 18.631111-35.697778 61.44-14.933333 88.32 18.915556 28.302222 61.866667 35.555556 88.746666 14.364445 27.875556-18.915556 34.702222-61.582222 13.937778-88.177778-18.773333-27.733333-61.013333-34.844444-87.751111-14.506667m281.6-2.844444c-40.533333 21.475556-40.96 86.471111-0.711111 108.373333 39.111111 27.306667 98.986667-6.684444 96.142222-53.902222 2.702222-46.933333-56.177778-80.924444-95.431111-54.471111z" fill="#F5F5F5" p-id="4587"></path>
  <path d="M202.524444 457.528889c39.253333-26.168889 97.991111 7.537778 95.288889 54.471111 2.702222 46.791111-55.893333 80.64-95.146666 54.613333-41.244444-21.617778-41.244444-87.466667-0.142223-109.084444zM475.448889 460.373333c26.737778-20.337778 68.977778-13.226667 87.751111 14.506667 20.764444 26.595556 13.937778 69.262222-13.937778 88.177778-26.88 21.191111-69.831111 13.937778-88.746666-14.364445-20.764444-26.88-13.226667-69.688889 14.933333-88.32zM757.048889 457.528889c39.253333-26.453333 98.133333 7.537778 95.431111 54.471111 2.844444 47.217778-57.031111 81.208889-96.142222 53.902222-40.248889-21.902222-39.822222-86.897778 0.711111-108.373333z" fill="#494949" p-id="4588"></path>
</svg>