<svg width="256" height="256" viewBox="0 0 256 256" fill="none" xmlns="http://www.w3.org/2000/svg">
<path d="M214.328 187.262C210.561 187.262 206.716 186.948 202.792 186.32C198.868 185.692 195.337 184.908 192.198 183.966L193.139 173.843C194.944 174.549 196.828 175.216 198.79 175.844C200.83 176.472 202.949 177.021 205.146 177.492C207.422 177.884 209.698 178.08 211.974 178.08C214.249 178.08 216.054 177.727 217.388 177.021C218.801 176.236 219.821 175.294 220.449 174.196C221.077 173.019 221.391 171.92 221.391 170.9C221.391 169.173 220.763 167.721 219.507 166.544C218.252 165.289 216.643 164.151 214.681 163.131C212.719 162.11 210.6 161.051 208.325 159.952C206.127 158.775 204.048 157.48 202.086 156.068C200.124 154.577 198.515 152.811 197.259 150.771C196.004 148.652 195.376 146.062 195.376 143.002C195.376 139.863 196.161 137.273 197.73 135.232C199.378 133.114 201.536 131.544 204.205 130.524C206.873 129.504 209.816 128.994 213.033 128.994C216.878 128.994 220.841 129.778 224.922 131.348C229.081 132.839 232.652 134.958 235.634 137.704L230.926 145.827C228.728 143.472 226.295 141.824 223.627 140.883C221.038 139.863 218.683 139.352 216.564 139.352C214.524 139.352 212.876 139.941 211.621 141.118C210.443 142.295 209.855 143.747 209.855 145.474C209.855 147.514 210.522 149.24 211.856 150.653C213.19 152.066 214.877 153.243 216.918 154.184C219.036 155.126 221.273 156.068 223.627 157.01C225.982 157.951 228.179 159.05 230.219 160.305C232.338 161.483 234.065 163.013 235.399 164.896C236.733 166.78 237.4 169.173 237.4 172.077C237.4 175.922 236.301 178.943 234.104 181.141C231.985 183.338 229.199 184.908 225.746 185.849C222.293 186.791 218.487 187.262 214.328 187.262Z" fill="#2C2C2C"/>
<path d="M159.61 187.262C155.843 187.262 151.998 186.948 148.074 186.32C144.15 185.692 140.619 184.908 137.479 183.966L138.421 173.843C140.226 174.549 142.11 175.216 144.071 175.844C146.112 176.472 148.231 177.021 150.428 177.492C152.704 177.884 154.98 178.08 157.255 178.08C159.531 178.08 161.336 177.727 162.67 177.021C164.083 176.236 165.103 175.294 165.731 174.196C166.359 173.019 166.672 171.92 166.672 170.9C166.672 169.173 166.045 167.721 164.789 166.544C163.533 165.289 161.925 164.151 159.963 163.131C158.001 162.11 155.882 161.051 153.606 159.952C151.409 158.775 149.329 157.48 147.367 156.068C145.406 154.577 143.797 152.811 142.541 150.771C141.286 148.652 140.658 146.062 140.658 143.002C140.658 139.863 141.443 137.273 143.012 135.232C144.66 133.114 146.818 131.544 149.486 130.524C152.154 129.504 155.097 128.994 158.315 128.994C162.16 128.994 166.123 129.778 170.204 131.348C174.363 132.839 177.934 134.958 180.916 137.704L176.207 145.827C174.01 143.472 171.577 141.824 168.909 140.883C166.319 139.863 163.965 139.352 161.846 139.352C159.806 139.352 158.158 139.941 156.902 141.118C155.725 142.295 155.137 143.747 155.137 145.474C155.137 147.514 155.804 149.24 157.138 150.653C158.472 152.066 160.159 153.243 162.199 154.184C164.318 155.126 166.555 156.068 168.909 157.01C171.263 157.951 173.461 159.05 175.501 160.305C177.62 161.483 179.346 163.013 180.68 164.896C182.015 166.78 182.682 169.173 182.682 172.077C182.682 175.922 181.583 178.943 179.386 181.141C177.267 183.338 174.481 184.908 171.028 185.849C167.575 186.791 163.769 187.262 159.61 187.262Z" fill="#2C2C2C"/>
<path d="M123.001 192.559C126.454 198.523 129.357 204.723 131.711 211.158H131.947C126.454 211.158 120.332 211.393 113.584 211.864C106.835 212.178 99.9287 212.1 92.8659 211.629H92.6305C91.061 208.019 89.0991 203.703 86.7448 198.68C84.3905 193.658 81.8008 188.4 78.9757 182.907C76.1506 177.413 73.09 171.998 69.794 166.662C66.498 161.326 63.2021 156.617 59.9061 152.537L59.4352 151.83C58.9644 155.44 58.7289 159.913 58.7289 165.25C58.7289 170.429 58.8074 175.844 58.9644 181.494C59.2783 186.987 59.5922 192.245 59.9061 197.268C60.22 202.29 60.4554 206.292 60.6124 209.274C57.9442 210.373 54.4128 211.079 50.0181 211.393C45.7804 211.707 41.5427 211.864 37.305 211.864C33.0674 212.021 29.222 212.021 25.7691 211.864C22.4731 211.707 20.4328 211.707 19.648 211.864C19.9619 211.864 20.1973 209.745 20.3543 205.508C20.5112 201.113 20.5897 195.384 20.5897 188.321C20.5897 181.259 20.5897 173.176 20.5897 164.072C20.5897 154.812 20.5112 145.317 20.3543 135.586C20.3543 125.698 20.1973 115.967 19.8834 106.393C19.7265 96.6617 19.5695 87.794 19.4126 79.7894C19.2556 71.628 19.0202 64.7221 18.7063 59.0718C18.5493 53.2646 18.3139 49.3408 18 47.3005C26.7893 46.0449 36.4418 44.8677 46.9576 43.7691C57.4733 42.6704 68.4599 42.7489 79.9174 44.0045C89.1775 44.4753 97.496 47.1435 104.873 52.009C112.249 56.8745 117.978 62.9172 122.059 70.1369C126.14 77.3567 128.258 85.3612 128.415 94.1505C128.729 102.783 126.454 111.18 121.588 119.341C118.606 124.992 114.604 129.7 109.581 133.467C104.716 137.234 98.5162 139.353 90.9825 139.823H90.0408H89.8054V140.059C93.1013 145.866 96.7112 151.673 100.635 157.48C104.559 163.131 108.404 168.859 112.171 174.667C115.938 180.474 119.548 186.438 123.001 192.559ZM68.6169 76.7289C63.2805 76.8858 57.8657 78.063 52.3724 80.2603C52.5293 82.3007 52.6078 84.6549 52.6078 87.3231C52.7648 89.8343 52.8433 92.4241 52.8433 95.0922C52.8433 97.7604 52.8433 100.35 52.8433 102.861C53.0002 105.373 53.2356 107.491 53.5495 109.218H53.785C57.3948 109.532 61.3186 109.767 65.5563 109.924C69.794 110.081 73.7963 109.846 77.5631 109.218C80.5452 108.59 82.821 107.099 84.3905 104.745C86.117 102.234 87.1372 99.5653 87.4511 96.7402C87.765 93.7581 87.4511 90.8545 86.5094 88.0294C85.5677 85.0473 83.9981 82.6931 81.8008 80.9666C78.3479 77.8275 73.9532 76.415 68.6169 76.7289Z" fill="#2C2C2C"/>
</svg>
