<?xml version="1.0" standalone="no"?><!DOCTYPE svg PUBLIC "-//W3C//DTD SVG 1.1//EN" "http://www.w3.org/Graphics/SVG/1.1/DTD/svg11.dtd"><svg t="1748161950364" class="icon" viewBox="0 0 1024 1024" version="1.1" xmlns="http://www.w3.org/2000/svg" p-id="10268" xmlns:xlink="http://www.w3.org/1999/xlink" width="128" height="128"><path d="M512 0.319169a511.680831 511.680831 0 1 0 511.680831 511.680831A511.680831 511.680831 0 0 0 512 0.319169z m0 955.910649a444.229818 444.229818 0 1 1 444.229818-444.229818 444.708571 444.708571 0 0 1-444.229818 444.229818z m35.693714-613.921247H476.306286v133.997715H342.308571v71.387428h133.997715v133.997715h71.387428v-133.997715h133.997715V476.306286h-133.997715V342.308571z m265.282494-25.746285l-49.098805 49.098805a290.337247 290.337247 0 0 1 0 292.571428l49.098805 49.098806a358.639377 358.639377 0 0 0 0-390.769039zM365.661091 260.122597a290.337247 290.337247 0 0 1 292.571428 0l49.098806-49.098805a358.639377 358.639377 0 0 0-390.875429 0zM260.122597 658.338909a290.337247 290.337247 0 0 1 0-292.571428l-49.098805-49.098806a358.639377 358.639377 0 0 0 0 390.875429z m398.216312 105.538494a290.337247 290.337247 0 0 1-292.571428 0l-49.098806 49.098805a358.639377 358.639377 0 0 0 390.875429 0z" fill="#171B27" p-id="10269"></path></svg>