<?xml version="1.0" standalone="no"?><!DOCTYPE svg PUBLIC "-//W3C//DTD SVG 1.1//EN" "http://www.w3.org/Graphics/SVG/1.1/DTD/svg11.dtd"><svg t="1748837082223" class="icon" viewBox="0 0 1024 1024" version="1.1" xmlns="http://www.w3.org/2000/svg" p-id="3440" xmlns:xlink="http://www.w3.org/1999/xlink" width="128" height="128"><path d="M800 149.333333A138.666667 138.666667 0 0 1 938.666667 288v448.128a138.666667 138.666667 0 0 1-138.666667 138.666667H224A138.666667 138.666667 0 0 1 85.333333 736.128V288.042667A138.666667 138.666667 0 0 1 224 149.333333h576zM357.461333 383.744a26.666667 26.666667 0 0 0-26.368 22.741333l-0.298666 3.925334v75.434666H267.605333v-74.666666l-0.298666-3.968a26.666667 26.666667 0 0 0-52.736 0l-0.298667 3.925333v202.752l0.298667 3.968a26.666667 26.666667 0 0 0 52.736 0l0.298666-3.968v-74.666667h63.146667l0.042667 73.941334 0.298666 3.925333a26.666667 26.666667 0 0 0 52.778667 0l0.256-3.925333V410.368l-0.256-3.925333a26.666667 26.666667 0 0 0-26.410667-22.741334z m376.448 0.981333H666.88l-3.968 0.256a26.666667 26.666667 0 0 0-22.357333 22.058667l-0.341334 4.352 0.213334 202.026667 0.341333 4.650666 0.981333 4.352c7.765333 24.832 47.488 23.466667 51.626667-4.181333l0.426667-4.864-0.085334-74.709333h31.701334l34.133333 84.693333 1.92 3.882667a26.666667 26.666667 0 0 0 48.853333-19.669334l-1.28-4.138666-31.573333-78.250667a76.970667 76.970667 0 0 0-37.205333-140.245333l-6.314667-0.213334z m-248.576-0.426666h-32l-3.968 0.298666a26.666667 26.666667 0 0 0-22.357333 22.016L426.666667 410.88v202.325333l0.256 3.925334c1.706667 11.434667 10.666667 20.48 22.016 22.357333l4.394666 0.384h32l7.082667-0.213333a112 112 0 0 0 104.704-104.704l0.213333-7.082667v-31.658667l-0.213333-7.082666a112 112 0 0 0-104.704-104.704l-7.082667-0.213334z m0 53.333333c30.506667 0 55.594667 23.253333 58.453334 53.034667l0.213333 5.632v31.658666l-0.256 5.632a58.666667 58.666667 0 0 1-52.736 52.736l-5.674667 0.298667-5.376-0.042667v-148.949333h5.376z m208.213334 0.384h40.362666l3.84 0.341333a23.68 23.68 0 0 1 0 46.677334l-3.84 0.298666h-40.32l-0.085333-47.317333z" fill="#212121" p-id="3441"></path></svg>