<?xml version="1.0" standalone="no"?><!DOCTYPE svg PUBLIC "-//W3C//DTD SVG 1.1//EN" "http://www.w3.org/Graphics/SVG/1.1/DTD/svg11.dtd"><svg t="1748161937091" class="icon" viewBox="0 0 1024 1024" version="1.1" xmlns="http://www.w3.org/2000/svg" p-id="9239" xmlns:xlink="http://www.w3.org/1999/xlink" width="128" height="128"><path d="M309.76 330.24h38.4v322.56h-38.4zM501.76 478.72l-35.84-15.36c-25.6-10.24-30.72-20.48-30.72-51.2 0-17.92 2.56-30.72 10.24-38.4 5.12-5.12 12.8-10.24 25.6-10.24s20.48 5.12 25.6 10.24c7.68 10.24 10.24 20.48 10.24 38.4h38.4c0-30.72-5.12-51.2-20.48-66.56-12.8-12.8-30.72-17.92-53.76-17.92-20.48 0-38.4 7.68-51.2 17.92-15.36 15.36-25.6 38.4-25.6 66.56 0 48.64 10.24 66.56 43.52 81.92l35.84 15.36c25.6 10.24 30.72 23.04 30.72 58.88 0 20.48-2.56 33.28-10.24 43.52-5.12 5.12-15.36 10.24-28.16 10.24-12.8 0-20.48-5.12-25.6-10.24-7.68-10.24-10.24-20.48-10.24-40.96h-38.4c0 33.28 5.12 53.76 20.48 69.12 12.8 12.8 30.72 20.48 56.32 20.48 25.6 0 46.08-7.68 56.32-20.48 15.36-15.36 20.48-35.84 20.48-69.12 2.56-53.76-5.12-76.8-43.52-92.16zM668.16 327.68c-25.6 0-43.52 10.24-56.32 23.04-23.04 25.6-23.04 61.44-23.04 140.8s2.56 117.76 23.04 140.8c12.8 12.8 30.72 23.04 56.32 23.04s43.52-10.24 56.32-23.04c23.04-25.6 23.04-61.44 23.04-140.8s0-117.76-23.04-140.8c-12.8-12.8-30.72-23.04-56.32-23.04z m25.6 284.16c-5.12 7.68-12.8 12.8-25.6 12.8s-20.48-5.12-25.6-12.8c-10.24-15.36-12.8-40.96-12.8-117.76s2.56-102.4 12.8-117.76c5.12-7.68 12.8-12.8 25.6-12.8s20.48 5.12 25.6 12.8c10.24 15.36 12.8 40.96 12.8 117.76s0 102.4-12.8 117.76z" p-id="9240"></path><path d="M847.36 176.64H194.56C161.28 176.64 130.56 204.8 130.56 240.64v509.44c0 35.84 28.16 64 64 64h652.8c35.84 0 64-28.16 64-64V240.64c0-35.84-28.16-64-64-64z m12.8 573.44c0 7.68-5.12 12.8-12.8 12.8H194.56c-7.68 0-12.8-5.12-12.8-12.8V240.64c0-7.68 5.12-12.8 12.8-12.8h652.8c7.68 0 12.8 5.12 12.8 12.8v509.44z" p-id="9241"></path></svg>