<?xml version="1.0" standalone="no"?><!DOCTYPE svg PUBLIC "-//W3C//DTD SVG 1.1//EN" "http://www.w3.org/Graphics/SVG/1.1/DTD/svg11.dtd"><svg t="1748180179791" class="icon" viewBox="0 0 1024 1024" version="1.1" xmlns="http://www.w3.org/2000/svg" p-id="9368" xmlns:xlink="http://www.w3.org/1999/xlink" width="128" height="128"><path d="M512 128a384 384 0 1 1 0 768A384 384 0 0 1 512 128z m0 64a315.712 315.712 0 0 0-276.992 158.976 323.136 323.136 0 0 0 0 322.048A315.712 315.712 0 0 0 512 832a315.712 315.712 0 0 0 276.992-158.976 323.136 323.136 0 0 0 0-322.048A315.712 315.712 0 0 0 512 192z m0 128a192 192 0 1 1 0 384 192 192 0 0 1 0-384z m17.728 70.528h-5.76c-64.64 5.888-119.296 55.232-126.912 118.08a32 32 0 0 0 62.272 13.44l1.28-5.696 1.28-7.296c7.168-28.608 35.072-51.84 67.84-54.784a32 32 0 0 0 5.504-62.72l-5.504-1.024z" fill="#171717" p-id="9369"></path></svg>