<?xml version="1.0" standalone="no"?><!DOCTYPE svg PUBLIC "-//W3C//DTD SVG 1.1//EN" "http://www.w3.org/Graphics/SVG/1.1/DTD/svg11.dtd"><svg t="1748161988683" class="icon" viewBox="0 0 1024 1024" version="1.1" xmlns="http://www.w3.org/2000/svg" p-id="14023" xmlns:xlink="http://www.w3.org/1999/xlink" width="128" height="128"><path d="M512 1008.485c-274.2 0-496.485-222.286-496.485-496.485C15.515 237.8 237.801 15.515 512 15.515c274.2 0 496.485 222.286 496.485 496.485 0 274.2-222.286 496.485-496.485 496.485z m0-93.091c222.798 0 403.394-180.596 403.394-403.394S734.798 108.606 512 108.606 108.606 289.202 108.606 512 289.202 915.394 512 915.394z m0-31.03c-205.653 0-372.364-166.71-372.364-372.364S306.346 139.636 512 139.636 884.364 306.346 884.364 512 717.654 884.364 512 884.364z" p-id="14024"></path></svg>